<?xml version="1.0" encoding="utf-8"?>
<!-- Generator: Adobe Illustrator 22.0.1, SVG Export Plug-In . SVG Version: 6.00 Build 0)  -->
<svg version="1.1" id="Layer_1" xmlns="http://www.w3.org/2000/svg" xmlns:xlink="http://www.w3.org/1999/xlink" x="0px" y="0px"
	 viewBox="0 0 300 100" style="enable-background:new 0 0 300 100;" xml:space="preserve" fill="#0d253e" opacity="70%">
<style type="text/css">
	.st0{stroke:#000000;stroke-width:9.400000e-02;}
</style>
<g>
	<g>
		<g>
			<g>
				<path class="st0" d="M80.4,32.1h29.1c0,2.3,0,4.7,0,7H99v27.5c0,0.5,0,0.9-0.1,1.4h-8.1c0-9.6,0-19.2,0-28.9H80.4
					C80.4,39.1,80.4,32.1,80.4,32.1z M133.8,32.1c2.7,0,5.4,0,8.2,0c0,11.9,0,23.9,0,35.8h-8.1c0-3.2,0-6.3,0-9.5
					C133.8,49.6,133.7,40.9,133.8,32.1z M277.6,32.1c2.7,0,5.4,0,8.2,0v28.6c4.7,0,9.5,0,14.2,0v7.2h-22.3
					C277.6,56,277.7,44,277.6,32.1z M200.9,44.1c-0.8-2.8-2.4-5.4-4.6-7.3c-2.9-2.6-6.7-4-10.5-4.5c-2.2-0.3-4.4-0.2-6.5-0.2h-9.7
					c-0.2,0-0.4,0-0.6,0c0,11.8,0,23.7,0,35.5c0,0.1,0,0.2,0,0.3h14c1.3-0.2,2.5-0.2,3.8-0.5c4.2-0.8,8.3-2.9,11.1-6.2
					c2-2.4,3.3-5.5,3.7-8.6C201.9,49.8,201.7,46.9,200.9,44.1L200.9,44.1z M191.7,56c-1,1.6-2.5,2.9-4.2,3.7c-1.6,0.7-3.3,1.1-5,1.1
					c-1.8,0-3.6,0-5.4,0c-0.1-2,0-4,0-6c0-5.2,0-10.5,0-15.7h5.6c2.8,0.1,5.7,1,7.7,3c1.8,1.8,2.9,4.3,3,6.8
					C193.5,51.3,193,53.9,191.7,56z M252.5,59.5c-3.4-8.3-6.8-16.6-10.3-24.9c-0.3-0.8-0.7-1.7-1-2.5c-2.8,0-5.6,0-8.4,0
					c-4.8,11.6-9.6,23.1-14.4,34.7c-0.2,0.4-0.3,0.7-0.4,1.1h8.7c0.9-2.4,1.8-4.7,2.6-7.1c4.9-0.1,9.9,0,14.8,0
					c0.3-0.1,0.3,0.2,0.4,0.4c0.8,2.3,1.7,4.5,2.5,6.8h9C254.8,65.1,253.6,62.3,252.5,59.5z M231.6,54.4c0-0.3,0.2-0.6,0.2-0.9
					c1.6-4.3,3.3-8.6,5-12.9c0,0,0.1,0,0.1,0c1.7,4.5,3.4,9.1,5.2,13.6c0,0.1,0,0.2,0,0.2C238.6,54.4,235.1,54.4,231.6,54.4z"/>
			</g>
		</g>
		<g>
			<g>
				<path class="st0" d="M9.7,30.5h0.1c0.9,1.1,2,2,2.9,3l6.7,6.7v0.1c-3.2,3.2-6.5,6.5-9.7,9.7c-3.3-3.2-6.5-6.5-9.7-9.7
					c0.2-0.3,0.5-0.5,0.7-0.8C3.7,36.5,6.7,33.5,9.7,30.5z"/>
			</g>
			<g>
				<path class="st0" d="M29.2,30.5h0.1c0.1,0.1,0.2,0.3,0.3,0.4c3.1,3.1,6.2,6.2,9.4,9.3c-0.1,0.2-0.2,0.3-0.4,0.4
					c-3.1,3.1-6.2,6.2-9.4,9.4c-3.3-3.2-6.5-6.5-9.7-9.7C22.6,37,26,33.8,29.2,30.5z"/>
			</g>
			<g>
				<path class="st0" d="M48.7,30.5h0.1c0.6,0.7,1.3,1.3,2,2c2.4,2.4,4.9,4.9,7.3,7.3c0.1,0.1,0.3,0.3,0.4,0.5
					c-3.3,3.2-6.5,6.5-9.7,9.7l-9.3-9.3c-0.1-0.2-0.3-0.3-0.4-0.5c1.6-1.6,3.2-3.2,4.9-4.9C45.5,33.7,47.1,32.2,48.7,30.5z"/>
			</g>
			<g>
				<path class="st0" d="M29.2,69.5c-1.1-1-2.1-2.1-3.2-3.1c-2.2-2.2-4.3-4.4-6.5-6.5c0-0.1,0.1-0.1,0.1-0.2l0,0
					c3.2-3.2,6.4-6.4,9.6-9.6l0.1,0.1c3.2,3.2,6.4,6.4,9.6,9.6c-0.1,0.2-0.3,0.4-0.5,0.6c-2.3,2.3-4.7,4.7-7,7
					C30.7,68,30,68.8,29.2,69.5"/>
			</g>
		</g>
	</g>
</g>
</svg>
