<?xml version="1.0" encoding="utf-8"?>
<!-- Generator: Adobe Illustrator 23.0.3, SVG Export Plug-In . SVG Version: 6.00 Build 0)  -->
<svg version="1.1"
	 id="logosvg.com" xmlns:cc="http://creativecommons.org/ns#" xmlns:dc="http://purl.org/dc/elements/1.1/" xmlns:inkscape="http://www.inkscape.org/namespaces/inkscape" xmlns:rdf="http://www.w3.org/1999/02/22-rdf-syntax-ns#" xmlns:sodipodi="http://sodipodi.sourceforge.net/DTD/sodipodi-0.dtd" xmlns:svg="http://www.w3.org/2000/svg"
	 xmlns="http://www.w3.org/2000/svg" xmlns:xlink="http://www.w3.org/1999/xlink" x="0px" y="0px" viewBox="0 0 400 300"
	 style="enable-background:new 0 0 400 300;" xml:space="preserve" fill="white">
<path id="black" transform="translate(-73.062335,-177.47319)" inkscape:groupmode="layer" inkscape:label="Layer 1" d="
	M219.6,352.4h-10.1v-35.8h-13V308h36.2v8.6h-13V352.4z M272.9,352.4h-10.1V308h10.1V352.4z M452,343.7h17.5v8.8h-27.7V308H452V343.7
	z M306.7,308h16.4c12.1,0,24.2,6.4,24.2,22.1c0,14.8-11.8,22.3-23.6,22.3h-17V308z M316.6,343.7h6.3c8.5,0,14.1-5.3,14.1-13.7
	c0-8-5.7-13.4-13.9-13.4h-6.5V343.7z M403.7,352.4h11.2L396.5,308H386l-18.5,44.4h10.9l3.3-8.8h18.7L403.7,352.4z M384.4,335.8
	l6.7-17.4l6.6,17.4H384.4z M128.6,314.5l-13,13l-13-13l13-13L128.6,314.5z M128.6,340.5l-13,13l-13-13l13-13L128.6,340.5z
	 M102.6,314.5l-13,13l-13-13l13-13L102.6,314.5z M154.6,314.5l-13,13l-13-13l13-13L154.6,314.5z"/>
</svg>
