<?xml version="1.0" encoding="UTF-8"?>
<svg width="700pt" height="700pt" version="1.1" viewBox="0 0 700 700" xmlns="http://www.w3.org/2000/svg">
 <path d="m245 70h210c28.996 0 52.5 23.504 52.5 52.5v350c0 14.023-15.668 22.352-27.289 14.504l-66.816-45.098-40.824 34.445c-13.035 11-32.105 11-45.141 0l-40.824-34.445-66.816 45.098c-11.621 7.8477-27.289-0.48047-27.289-14.504v-350c0-28.996 23.504-52.5 52.5-52.5zm35 140h140c9.6641 0 17.5-7.8359 17.5-17.5s-7.8359-17.5-17.5-17.5h-140c-9.6641 0-17.5 7.8359-17.5 17.5s7.8359 17.5 17.5 17.5zm0 70h140c9.6641 0 17.5-7.8359 17.5-17.5s-7.8359-17.5-17.5-17.5h-140c-9.6641 0-17.5 7.8359-17.5 17.5s7.8359 17.5 17.5 17.5zm0 70h140c9.6641 0 17.5-7.8359 17.5-17.5s-7.8359-17.5-17.5-17.5h-140c-9.6641 0-17.5 7.8359-17.5 17.5s7.8359 17.5 17.5 17.5z"/>
</svg>
