<?xml version="1.0" encoding="UTF-8"?>
<svg width="700pt" height="700pt" version="1.1" viewBox="0 0 700 700" xmlns="http://www.w3.org/2000/svg">
 <g>
  <path d="m550.25 13.645v546.36h-400.5v-546.36h40.324v-13.645h12.797v13.645h17.91v-13.645h12.797v13.645h17.91v-13.645h12.797v13.645h17.91v-13.645h12.797v13.645h17.91v-13.645h12.797v13.645h17.91v-13.645h12.797v13.645h17.91v-13.645h12.797v13.645h17.91v-13.645h12.797v13.645h17.91v-13.645h12.797v13.645h17.91v-13.645h12.797v13.645h17.91v-13.645h12.797v13.645h40.316zm-53.113 24.621v-11.824h-17.91v11.824h-12.797v-11.824h-17.91v11.824h-12.797v-11.824h-17.91v11.824h-12.797v-11.824h-17.91v11.824h-12.797v-11.824h-17.91v11.824h-12.797v-11.824h-17.91v11.824h-12.797v-11.824h-17.91v11.824h-12.797v-11.824h-17.91v11.824h-12.797v-11.824h-17.91v11.824h-12.797v-11.824h-17.91v11.824h-12.797v-11.824h-27.527v520.76h374.91v-520.76h-27.523v11.824h-12.797z"/>
  <path d="m298.18 82.73h187.12v12.797h-187.12z"/>
  <path d="m214.69 144.14h270.62v12.797h-270.62z"/>
  <path d="m214.69 205.55h270.62v12.797h-270.62z"/>
  <path d="m214.69 266.97h270.62v12.797h-270.62z"/>
  <path d="m214.69 328.38h270.62v12.797h-270.62z"/>
  <path d="m214.69 389.79h270.62v12.797h-270.62z"/>
 </g>
</svg>
