<?xml version="1.0" encoding="UTF-8"?>
<svg width="700pt" height="700pt" version="1.1" viewBox="0 0 700 700" xmlns="http://www.w3.org/2000/svg">
 <g>
  <path d="m513.33 46.668h-326.66c-18.566 0-36.371 7.375-49.5 20.5-13.125 13.129-20.5 30.934-20.5 49.5v326.66c0 18.566 7.375 36.371 20.5 49.5 13.129 13.125 30.934 20.5 49.5 20.5h326.66c18.566 0 36.371-7.375 49.5-20.5 13.125-13.129 20.5-30.934 20.5-49.5v-326.66c0-18.566-7.375-36.371-20.5-49.5-13.129-13.125-30.934-20.5-49.5-20.5zm23.332 396.67 0.003907-0.003907c0 6.1914-2.4609 12.125-6.8359 16.5s-10.309 6.8359-16.5 6.8359h-326.66c-6.1914 0-12.125-2.4609-16.5-6.8359s-6.8359-10.309-6.8359-16.5v-326.66c0-6.1914 2.4609-12.125 6.8359-16.5s10.309-6.8359 16.5-6.8359h326.66c6.1914 0 12.125 2.4609 16.5 6.8359s6.8359 10.309 6.8359 16.5z"/>
  <path d="m350 140c-37.129 0-72.738 14.75-98.996 41.004-26.254 26.258-41.004 61.867-41.004 98.996s14.75 72.738 41.004 98.996c26.258 26.254 61.867 41.004 98.996 41.004s72.738-14.75 98.996-41.004c26.254-26.258 41.004-61.867 41.004-98.996s-14.75-72.738-41.004-98.996c-26.258-26.254-61.867-41.004-98.996-41.004zm90.066 116.67h-66.734v-66.734c16.051 4.1875 30.695 12.582 42.426 24.309 11.727 11.73 20.121 26.375 24.309 42.426zm-90.066 116.66c-30.281-0.36328-58.504-15.395-75.703-40.32s-21.234-56.648-10.824-85.086 33.969-50.059 63.195-57.992v90.066c0 6.1875 2.457 12.125 6.832 16.5s10.312 6.832 16.5 6.832h90.066c-5.1602 19.984-16.797 37.695-33.094 50.363-16.297 12.664-36.332 19.57-56.973 19.637z"/>
 </g>
</svg>
