<svg width="0" height="0" class="hidden">
  <symbol version="1.1" xmlns="http://www.w3.org/2000/svg" xmlns:xlink="http://www.w3.org/1999/xlink" viewBox="0 0 700 700" id="building">
    <defs>
      <symbol id="s" overflow="visible">
        <path d="m18.766-1.125c-0.96875 0.5-1.9805 0.875-3.0312 1.125-1.043 0.25781-2.1367 0.39062-3.2812 0.39062-3.3984 0-6.0898-0.94531-8.0781-2.8438-1.9922-1.9062-2.9844-4.4844-2.9844-7.7344 0-3.2578 0.99219-5.8359 2.9844-7.7344 1.9883-1.9062 4.6797-2.8594 8.0781-2.8594 1.1445 0 2.2383 0.13281 3.2812 0.39062 1.0508 0.25 2.0625 0.625 3.0312 1.125v4.2188c-0.98047-0.65625-1.9453-1.1406-2.8906-1.4531-0.94922-0.3125-1.9492-0.46875-3-0.46875-1.875 0-3.3516 0.60547-4.4219 1.8125-1.0742 1.1992-1.6094 2.8555-1.6094 4.9688 0 2.1055 0.53516 3.7617 1.6094 4.9688 1.0703 1.1992 2.5469 1.7969 4.4219 1.7969 1.0508 0 2.0508-0.14844 3-0.45312 0.94531-0.3125 1.9102-0.80078 2.8906-1.4688z"></path>
      </symbol>
      <symbol id="e" overflow="visible">
        <path d="m13.734-11.141c-0.4375-0.19531-0.87109-0.34375-1.2969-0.4375-0.41797-0.10156-0.83984-0.15625-1.2656-0.15625-1.2617 0-2.2305 0.40625-2.9062 1.2188-0.67969 0.80469-1.0156 1.9531-1.0156 3.4531v7.0625h-4.8906v-15.312h4.8906v2.5156c0.625-1 1.3438-1.7266 2.1562-2.1875 0.82031-0.46875 1.8008-0.70312 2.9375-0.70312 0.16406 0 0.34375 0.011719 0.53125 0.03125 0.19531 0.011719 0.47656 0.039062 0.84375 0.078125z"></path>
      </symbol>
      <symbol id="a" overflow="visible">
        <path d="m17.641-7.7031v1.4062h-11.453c0.125 1.1484 0.53906 2.0078 1.25 2.5781 0.70703 0.57422 1.7031 0.85938 2.9844 0.85938 1.0312 0 2.082-0.14844 3.1562-0.45312 1.082-0.3125 2.1914-0.77344 3.3281-1.3906v3.7656c-1.1562 0.4375-2.3125 0.76562-3.4688 0.98438-1.1562 0.22656-2.3125 0.34375-3.4688 0.34375-2.7734 0-4.9297-0.70312-6.4688-2.1094-1.5312-1.4062-2.2969-3.3789-2.2969-5.9219 0-2.5 0.75391-4.4609 2.2656-5.8906 1.5078-1.4375 3.582-2.1562 6.2188-2.1562 2.4062 0 4.332 0.73047 5.7812 2.1875 1.4453 1.4492 2.1719 3.3828 2.1719 5.7969zm-5.0312-1.625c0-0.92578-0.27344-1.6719-0.8125-2.2344-0.54297-0.57031-1.25-0.85938-2.125-0.85938-0.94922 0-1.7188 0.26562-2.3125 0.79688s-0.96484 1.2969-1.1094 2.2969z"></path>
      </symbol>
      <symbol id="d" overflow="visible">
        <path d="m9.2188-6.8906c-1.0234 0-1.793 0.17188-2.3125 0.51562-0.51172 0.34375-0.76562 0.85547-0.76562 1.5312 0 0.625 0.20703 1.1172 0.625 1.4688 0.41406 0.34375 0.98828 0.51562 1.7188 0.51562 0.92578 0 1.7031-0.32812 2.3281-0.98438 0.63281-0.66406 0.95312-1.4922 0.95312-2.4844v-0.5625zm7.4688-1.8438v8.7344h-4.9219v-2.2656c-0.65625 0.92969-1.3984 1.6055-2.2188 2.0312-0.82422 0.41406-1.8242 0.625-3 0.625-1.5859 0-2.8711-0.45703-3.8594-1.375-0.99219-0.92578-1.4844-2.1289-1.4844-3.6094 0-1.7891 0.61328-3.1016 1.8438-3.9375 1.2383-0.84375 3.1797-1.2656 5.8281-1.2656h2.8906v-0.39062c0-0.76953-0.30859-1.332-0.92188-1.6875-0.61719-0.36328-1.5703-0.54688-2.8594-0.54688-1.0547 0-2.0312 0.10547-2.9375 0.3125-0.89844 0.21094-1.7305 0.52344-2.5 0.9375v-3.7344c1.0391-0.25 2.0859-0.44141 3.1406-0.57812 1.0625-0.13281 2.125-0.20312 3.1875-0.20312 2.7578 0 4.75 0.54688 5.9688 1.6406 1.2266 1.0859 1.8438 2.8555 1.8438 5.3125z"></path>
      </symbol>
      <symbol id="c" overflow="visible">
        <path d="m7.7031-19.656v4.3438h5.0469v3.5h-5.0469v6.5c0 0.71094 0.14062 1.1875 0.42188 1.4375s0.83594 0.375 1.6719 0.375h2.5156v3.5h-4.1875c-1.9375 0-3.3125-0.39844-4.125-1.2031-0.80469-0.8125-1.2031-2.1797-1.2031-4.1094v-6.5h-2.4219v-3.5h2.4219v-4.3438z"></path>
      </symbol>
      <symbol id="b" overflow="visible">
        <path d="m12.766-13.078v-8.2031h4.9219v21.281h-4.9219v-2.2188c-0.66797 0.90625-1.4062 1.5703-2.2188 1.9844s-1.7578 0.625-2.8281 0.625c-1.8867 0-3.4336-0.75-4.6406-2.25-1.2109-1.5-1.8125-3.4258-1.8125-5.7812 0-2.3633 0.60156-4.2969 1.8125-5.7969 1.207-1.5 2.7539-2.25 4.6406-2.25 1.0625 0 2 0.21484 2.8125 0.64062 0.82031 0.42969 1.5664 1.0859 2.2344 1.9688zm-3.2188 9.9219c1.0391 0 1.8359-0.37891 2.3906-1.1406 0.55078-0.76953 0.82812-1.8828 0.82812-3.3438 0-1.457-0.27734-2.5664-0.82812-3.3281-0.55469-0.76953-1.3516-1.1562-2.3906-1.1562-1.043 0-1.8398 0.38672-2.3906 1.1562-0.55469 0.76172-0.82812 1.8711-0.82812 3.3281 0 1.4609 0.27344 2.5742 0.82812 3.3438 0.55078 0.76172 1.3477 1.1406 2.3906 1.1406z"></path>
      </symbol>
      <symbol id="i" overflow="visible">
        <path d="m10.5-3.1562c1.0508 0 1.8516-0.37891 2.4062-1.1406 0.55078-0.76953 0.82812-1.8828 0.82812-3.3438 0-1.457-0.27734-2.5664-0.82812-3.3281-0.55469-0.76953-1.3555-1.1562-2.4062-1.1562-1.0547 0-1.8594 0.38672-2.4219 1.1562-0.55469 0.77344-0.82812 1.8828-0.82812 3.3281 0 1.4492 0.27344 2.5586 0.82812 3.3281 0.5625 0.77344 1.3672 1.1562 2.4219 1.1562zm-3.25-9.9219c0.67578-0.88281 1.4219-1.5391 2.2344-1.9688 0.82031-0.42578 1.7656-0.64062 2.8281-0.64062 1.8945 0 3.4453 0.75 4.6562 2.25 1.207 1.5 1.8125 3.4336 1.8125 5.7969 0 2.3555-0.60547 4.2812-1.8125 5.7812-1.2109 1.5-2.7617 2.25-4.6562 2.25-1.0625 0-2.0078-0.21094-2.8281-0.625-0.8125-0.42578-1.5586-1.0859-2.2344-1.9844v2.2188h-4.8906v-21.281h4.8906z"></path>
      </symbol>
      <symbol id="h" overflow="visible">
        <path d="m0.34375-15.312h4.8906l4.125 10.391 3.5-10.391h4.8906l-6.4375 16.766c-0.64844 1.6953-1.4023 2.8828-2.2656 3.5625-0.86719 0.6875-2 1.0312-3.4062 1.0312h-2.8438v-3.2188h1.5312c0.83203 0 1.4375-0.13672 1.8125-0.40625 0.38281-0.26172 0.67969-0.73047 0.89062-1.4062l0.14062-0.42188z"></path>
      </symbol>
      <symbol id="g" overflow="visible">
        <path d="m2.5781-20.406h6.6875l4.6562 10.922 4.6719-10.922h6.6875v20.406h-4.9844v-14.938l-4.7031 11.016h-3.3281l-4.7031-11.016v14.938h-4.9844z"></path>
      </symbol>
      <symbol id="r" overflow="visible">
        <path d="m12.422-21.281v3.2188h-2.7031c-0.6875 0-1.1719 0.125-1.4531 0.375-0.27344 0.25-0.40625 0.6875-0.40625 1.3125v1.0625h4.1875v3.5h-4.1875v11.812h-4.8906v-11.812h-2.4375v-3.5h2.4375v-1.0625c0-1.6641 0.46094-2.8984 1.3906-3.7031 0.92578-0.80078 2.3672-1.2031 4.3281-1.2031z"></path>
      </symbol>
      <symbol id="f" overflow="visible">
        <path d="m9.6406-12.188c-1.0859 0-1.9141 0.39062-2.4844 1.1719-0.57422 0.78125-0.85938 1.9062-0.85938 3.375s0.28516 2.5938 0.85938 3.375c0.57031 0.77344 1.3984 1.1562 2.4844 1.1562 1.0625 0 1.875-0.38281 2.4375-1.1562 0.57031-0.78125 0.85938-1.9062 0.85938-3.375s-0.28906-2.5938-0.85938-3.375c-0.5625-0.78125-1.375-1.1719-2.4375-1.1719zm0-3.5c2.6328 0 4.6914 0.71484 6.1719 2.1406 1.4766 1.418 2.2188 3.3867 2.2188 5.9062 0 2.5117-0.74219 4.4805-2.2188 5.9062-1.4805 1.418-3.5391 2.125-6.1719 2.125-2.6484 0-4.7148-0.70703-6.2031-2.125-1.4922-1.4258-2.2344-3.3945-2.2344-5.9062 0-2.5195 0.74219-4.4883 2.2344-5.9062 1.4883-1.4258 3.5547-2.1406 6.2031-2.1406z"></path>
      </symbol>
      <symbol id="q" overflow="visible">
        <path d="m16.547-12.766c0.61328-0.94531 1.3477-1.6719 2.2031-2.1719 0.85156-0.5 1.7891-0.75 2.8125-0.75 1.7578 0 3.0977 0.54688 4.0156 1.6406 0.92578 1.0859 1.3906 2.6562 1.3906 4.7188v9.3281h-4.9219v-7.9844-0.35938c0.007813-0.13281 0.015625-0.32031 0.015625-0.5625 0-1.082-0.16406-1.8633-0.48438-2.3438-0.3125-0.48828-0.82422-0.73438-1.5312-0.73438-0.92969 0-1.6484 0.38672-2.1562 1.1562-0.51172 0.76172-0.77344 1.8672-0.78125 3.3125v7.5156h-4.9219v-7.9844c0-1.6953-0.14844-2.7852-0.4375-3.2656-0.29297-0.48828-0.8125-0.73438-1.5625-0.73438-0.9375 0-1.6641 0.38672-2.1719 1.1562-0.51172 0.76172-0.76562 1.8594-0.76562 3.2969v7.5312h-4.9219v-15.312h4.9219v2.2344c0.60156-0.86328 1.2891-1.5156 2.0625-1.9531 0.78125-0.4375 1.6406-0.65625 2.5781-0.65625 1.0625 0 2 0.25781 2.8125 0.76562 0.8125 0.51172 1.4258 1.2305 1.8438 2.1562z"></path>
      </symbol>
      <symbol id="p" overflow="visible">
        <path d="m17.75-9.3281v9.3281h-4.9219v-7.1094c0-1.3438-0.03125-2.2656-0.09375-2.7656s-0.16797-0.86719-0.3125-1.1094c-0.1875-0.3125-0.44922-0.55469-0.78125-0.73438-0.32422-0.17578-0.69531-0.26562-1.1094-0.26562-1.0234 0-1.8242 0.39844-2.4062 1.1875-0.58594 0.78125-0.875 1.8711-0.875 3.2656v7.5312h-4.8906v-21.281h4.8906v8.2031c0.73828-0.88281 1.5195-1.5391 2.3438-1.9688 0.83203-0.42578 1.75-0.64062 2.75-0.64062 1.7695 0 3.1133 0.54688 4.0312 1.6406 0.91406 1.0859 1.375 2.6562 1.375 4.7188z"></path>
      </symbol>
      <symbol id="o" overflow="visible">
        <path d="m2.5781-20.406h5.875l7.4219 14v-14h4.9844v20.406h-5.875l-7.4219-14v14h-4.9844z"></path>
      </symbol>
      <symbol id="n" overflow="visible">
        <path d="m2.1875-5.9688v-9.3438h4.9219v1.5312c0 0.83594-0.007813 1.875-0.015625 3.125-0.011719 1.25-0.015625 2.0859-0.015625 2.5 0 1.2422 0.03125 2.1328 0.09375 2.6719 0.070313 0.54297 0.17969 0.93359 0.32812 1.1719 0.20703 0.32422 0.47266 0.57422 0.79688 0.75 0.32031 0.16797 0.69141 0.25 1.1094 0.25 1.0195 0 1.8203-0.39062 2.4062-1.1719 0.58203-0.78125 0.875-1.8672 0.875-3.2656v-7.5625h4.8906v15.312h-4.8906v-2.2188c-0.74219 0.89844-1.5234 1.5586-2.3438 1.9844-0.82422 0.41406-1.7344 0.625-2.7344 0.625-1.7617 0-3.1055-0.53906-4.0312-1.625-0.92969-1.082-1.3906-2.6602-1.3906-4.7344z"></path>
      </symbol>
      <symbol id="m" overflow="visible">
        <path d="m17.75-9.3281v9.3281h-4.9219v-7.1406c0-1.3203-0.03125-2.2344-0.09375-2.7344s-0.16797-0.86719-0.3125-1.1094c-0.1875-0.3125-0.44922-0.55469-0.78125-0.73438-0.32422-0.17578-0.69531-0.26562-1.1094-0.26562-1.0234 0-1.8242 0.39844-2.4062 1.1875-0.58594 0.78125-0.875 1.8711-0.875 3.2656v7.5312h-4.8906v-15.312h4.8906v2.2344c0.73828-0.88281 1.5195-1.5391 2.3438-1.9688 0.83203-0.42578 1.75-0.64062 2.75-0.64062 1.7695 0 3.1133 0.54688 4.0312 1.6406 0.91406 1.0859 1.375 2.6562 1.375 4.7188z"></path>
      </symbol>
      <symbol id="l" overflow="visible">
        <path d="m2.5781-20.406h8.7344c2.5938 0 4.582 0.57812 5.9688 1.7344 1.3945 1.1484 2.0938 2.7891 2.0938 4.9219 0 2.1367-0.69922 3.7812-2.0938 4.9375-1.3867 1.1562-3.375 1.7344-5.9688 1.7344h-3.4844v7.0781h-5.25zm5.25 3.8125v5.7031h2.9219c1.0195 0 1.8047-0.25 2.3594-0.75 0.5625-0.5 0.84375-1.2031 0.84375-2.1094 0-0.91406-0.28125-1.6172-0.84375-2.1094-0.55469-0.48828-1.3398-0.73438-2.3594-0.73438z"></path>
      </symbol>
      <symbol id="k" overflow="visible">
        <path d="m2.3594-15.312h4.8906v15.031c0 2.0508-0.49609 3.6172-1.4844 4.7031-0.98047 1.082-2.4062 1.625-4.2812 1.625h-2.4219v-3.2188h0.85938c0.92578 0 1.5625-0.21094 1.9062-0.625 0.35156-0.41797 0.53125-1.2461 0.53125-2.4844zm0-5.9688h4.8906v4h-4.8906z"></path>
      </symbol>
      <symbol id="j" overflow="visible">
        <path d="m14.719-14.828v3.9844c-0.65625-0.45703-1.3242-0.79688-2-1.0156-0.66797-0.21875-1.3594-0.32812-2.0781-0.32812-1.3672 0-2.4336 0.40234-3.2031 1.2031-0.76172 0.79297-1.1406 1.9062-1.1406 3.3438 0 1.4297 0.37891 2.543 1.1406 3.3438 0.76953 0.79297 1.8359 1.1875 3.2031 1.1875 0.75781 0 1.4844-0.10938 2.1719-0.32812 0.6875-0.22656 1.3203-0.56641 1.9062-1.0156v4c-0.76172 0.28125-1.5391 0.48828-2.3281 0.625-0.78125 0.14453-1.5742 0.21875-2.375 0.21875-2.7617 0-4.9219-0.70703-6.4844-2.125-1.5547-1.4141-2.3281-3.3828-2.3281-5.9062 0-2.5312 0.77344-4.5039 2.3281-5.9219 1.5625-1.4141 3.7227-2.125 6.4844-2.125 0.80078 0 1.5938 0.074219 2.375 0.21875 0.78125 0.13672 1.5547 0.35156 2.3281 0.64062z"></path>
      </symbol>
    </defs>
    <g>
      <path d="m131.6 504h436.8c3.0977 0 5.6016-2.5039 5.6016-5.6016 0-3.0977-2.5039-5.6016-5.6016-5.6016h-5.1367v-221.95c0-3.0977-2.5039-5.6016-5.6016-5.6016l-128.82 0.003906v-73.914c0-3.0977-2.5039-5.6016-5.6016-5.6016h-9.3906v-57.633h18.664c2.4375 0 4.5938-1.5742 5.332-3.8906 0.74609-2.3242-0.10156-4.8555-2.082-6.2656l-84.168-59.93c-1.9492-1.3906-4.5469-1.3906-6.4961 0l-84.168 59.93c-1.9805 1.4102-2.8281 3.9414-2.082 6.2656 0.73828 2.3203 2.9023 3.8906 5.332 3.8906h18.664v57.637h-9.3906c-3.0977 0-5.6016 2.5039-5.6016 5.6016v73.914l-125.05-0.003906c-3.0977 0-5.6016 2.5039-5.6016 5.6016v221.95h-5.6016c-3.0977 0-5.6016 2.5039-5.6016 5.6016 0.003906 3.0938 2.5078 5.5977 5.6055 5.5977zm180.57-11.199v-97.391h30.582l-0.003906 97.391zm41.781-97.391h30.582v97.391h-30.582zm198.12-118.96v216.35h-123.22v-216.35zm-203.72-207.01 66.645 47.461-133.29-0.003906zm-54.305 58.66h108.61v57.637l-108.61-0.003906zm123.6 68.832v295.87h-21.914l0.003907-102.99c0-3.0977-2.5039-5.6016-5.6016-5.6016l-83.562 0.003907c-3.0977 0-5.6016 2.5039-5.6016 5.6016v102.99h-21.914l0.003907-295.87zm-269.24 79.516h119.45l0.003907 216.35h-119.46z"></path>
      <path d="m306.57 280.65h26.145c3.0977 0 5.6016-2.5039 5.6016-5.6016v-44.762c0-3.0977-2.5039-5.6016-5.6016-5.6016h-26.145c-3.0977 0-5.6016 2.5039-5.6016 5.6016v44.762c0 3.0977 2.5039 5.6016 5.6016 5.6016zm5.6016-44.758h14.945v33.562h-14.945z"></path>
      <path d="m363.98 280.65h26.145c3.0977 0 5.6016-2.5039 5.6016-5.6016v-44.762c0-3.0977-2.5039-5.6016-5.6016-5.6016h-26.145c-3.0977 0-5.6016 2.5039-5.6016 5.6016v44.762c0 3.0977 2.5039 5.6016 5.6016 5.6016zm5.5977-44.758h14.945v33.562h-14.945z"></path>
      <path d="m306.57 360.41h26.145c3.0977 0 5.6016-2.5039 5.6016-5.6016v-44.766c0-3.0977-2.5039-5.6016-5.6016-5.6016h-26.145c-3.0977 0-5.6016 2.5039-5.6016 5.6016v44.766c0 3.1016 2.5039 5.6016 5.6016 5.6016zm5.6016-44.766h14.945v33.566h-14.945z"></path>
      <path d="m363.98 360.41h26.145c3.0977 0 5.6016-2.5039 5.6016-5.6016v-44.766c0-3.0977-2.5039-5.6016-5.6016-5.6016h-26.145c-3.0977 0-5.6016 2.5039-5.6016 5.6016v44.766c0 3.1016 2.5039 5.6016 5.6016 5.6016zm5.5977-44.766h14.945v33.566h-14.945z"></path>
      <path d="m193.9 304.45h-24.965c-3.0977 0-5.6016 2.5039-5.6016 5.6016v44.766c0 3.0977 2.5039 5.6016 5.6016 5.6016h24.965c3.0977 0 5.6016-2.5039 5.6016-5.6016v-44.766c0-3.0977-2.5039-5.6016-5.6016-5.6016zm-5.5977 44.766h-13.766v-33.566h13.766z"></path>
      <path d="m248.72 304.45h-24.965c-3.0977 0-5.6016 2.5039-5.6016 5.6016v44.766c0 3.0977 2.5039 5.6016 5.6016 5.6016h24.965c3.0977 0 5.6016-2.5039 5.6016-5.6016v-44.766c0-3.0977-2.5039-5.6016-5.6016-5.6016zm-5.5977 44.766h-13.766v-33.566h13.766z"></path>
      <path d="m193.9 384.21h-24.965c-3.0977 0-5.6016 2.5039-5.6016 5.6016v44.766c0 3.0977 2.5039 5.6016 5.6016 5.6016h24.965c3.0977 0 5.6016-2.5039 5.6016-5.6016v-44.766c0-3.0938-2.5039-5.6016-5.6016-5.6016zm-5.5977 44.77h-13.766v-33.566h13.766z"></path>
      <path d="m248.72 384.21h-24.965c-3.0977 0-5.6016 2.5039-5.6016 5.6016v44.766c0 3.0977 2.5039 5.6016 5.6016 5.6016h24.965c3.0977 0 5.6016-2.5039 5.6016-5.6016v-44.766c0-3.0938-2.5039-5.6016-5.6016-5.6016zm-5.5977 44.77h-13.766v-33.566h13.766z"></path>
      <path d="m451.06 360.41h24.965c3.0977 0 5.6016-2.5039 5.6016-5.6016v-44.766c0-3.0977-2.5039-5.6016-5.6016-5.6016h-24.965c-3.0977 0-5.6016 2.5039-5.6016 5.6016v44.766c0.003906 3.1016 2.5039 5.6016 5.6016 5.6016zm5.6016-44.766h13.766v33.566h-13.766z"></path>
      <path d="m505.89 360.41h24.965c3.0977 0 5.6016-2.5039 5.6016-5.6016v-44.766c0-3.0977-2.5039-5.6016-5.6016-5.6016h-24.965c-3.0977 0-5.6016 2.5039-5.6016 5.6016v44.766c0.003906 3.1016 2.5039 5.6016 5.6016 5.6016zm5.6016-44.766h13.766v33.566h-13.766z"></path>
      <path d="m451.06 440.18h24.965c3.0977 0 5.6016-2.5039 5.6016-5.6016v-44.766c0-3.0977-2.5039-5.6016-5.6016-5.6016h-24.965c-3.0977 0-5.6016 2.5039-5.6016 5.6016v44.766c0.003906 3.0898 2.5039 5.6016 5.6016 5.6016zm5.6016-44.773h13.766v33.566h-13.766z"></path>
      <path d="m505.89 440.18h24.965c3.0977 0 5.6016-2.5039 5.6016-5.6016v-44.766c0-3.0977-2.5039-5.6016-5.6016-5.6016h-24.965c-3.0977 0-5.6016 2.5039-5.6016 5.6016v44.766c0.003906 3.0898 2.5039 5.6016 5.6016 5.6016zm5.6016-44.773h13.766v33.566h-13.766z"></path>
      <use x="70" y="644" xlink:href="#s"></use>
      <use x="90.550781" y="644" xlink:href="#e"></use>
      <use x="104.359375" y="644" xlink:href="#a"></use>
      <use x="123.347656" y="644" xlink:href="#d"></use>
      <use x="142.242188" y="644" xlink:href="#c"></use>
      <use x="155.628906" y="644" xlink:href="#a"></use>
      <use x="174.617188" y="644" xlink:href="#b"></use>
      <use x="204.410156" y="644" xlink:href="#i"></use>
      <use x="224.453125" y="644" xlink:href="#h"></use>
      <use x="252.453125" y="644" xlink:href="#g"></use>
      <use x="280.3125" y="644" xlink:href="#d"></use>
      <use x="299.210938" y="644" xlink:href="#b"></use>
      <use x="319.25" y="644" xlink:href="#a"></use>
      <use x="347.992188" y="644" xlink:href="#i"></use>
      <use x="368.03125" y="644" xlink:href="#h"></use>
      <use x="396.03125" y="644" xlink:href="#g"></use>
      <use x="423.898438" y="644" xlink:href="#d"></use>
      <use x="442.789062" y="644" xlink:href="#b"></use>
      <use x="462.835937" y="644" xlink:href="#a"></use>
      <use x="70" y="672" xlink:href="#r"></use>
      <use x="82.183594" y="672" xlink:href="#e"></use>
      <use x="95.992188" y="672" xlink:href="#f"></use>
      <use x="115.226562" y="672" xlink:href="#q"></use>
      <use x="154.152344" y="672" xlink:href="#c"></use>
      <use x="167.535156" y="672" xlink:href="#p"></use>
      <use x="187.46875" y="672" xlink:href="#a"></use>
      <use x="216.207031" y="672" xlink:href="#o"></use>
      <use x="239.640625" y="672" xlink:href="#f"></use>
      <use x="258.878906" y="672" xlink:href="#n"></use>
      <use x="278.8125" y="672" xlink:href="#m"></use>
      <use x="308.492188" y="672" xlink:href="#l"></use>
      <use x="329.015625" y="672" xlink:href="#e"></use>
      <use x="342.820312" y="672" xlink:href="#f"></use>
      <use x="362.058594" y="672" xlink:href="#k"></use>
      <use x="371.65625" y="672" xlink:href="#a"></use>
      <use x="390.648438" y="672" xlink:href="#j"></use>
      <use x="407.242188" y="672" xlink:href="#c"></use>
    </g>
  </symbol>
  <symbol version="1.1" xmlns="http://www.w3.org/2000/svg" viewBox="0 0 700 700" id="memo">
    <path d="m245 70h210c28.996 0 52.5 23.504 52.5 52.5v350c0 14.023-15.668 22.352-27.289 14.504l-66.816-45.098-40.824 34.445c-13.035 11-32.105 11-45.141 0l-40.824-34.445-66.816 45.098c-11.621 7.8477-27.289-0.48047-27.289-14.504v-350c0-28.996 23.504-52.5 52.5-52.5zm35 140h140c9.6641 0 17.5-7.8359 17.5-17.5s-7.8359-17.5-17.5-17.5h-140c-9.6641 0-17.5 7.8359-17.5 17.5s7.8359 17.5 17.5 17.5zm0 70h140c9.6641 0 17.5-7.8359 17.5-17.5s-7.8359-17.5-17.5-17.5h-140c-9.6641 0-17.5 7.8359-17.5 17.5s7.8359 17.5 17.5 17.5zm0 70h140c9.6641 0 17.5-7.8359 17.5-17.5s-7.8359-17.5-17.5-17.5h-140c-9.6641 0-17.5 7.8359-17.5 17.5s7.8359 17.5 17.5 17.5z"></path>
  </symbol>
  <symbol version="1.1" xmlns="http://www.w3.org/2000/svg" xmlns:xlink="http://www.w3.org/1999/xlink" viewBox="0 0 700 700" id="checkboz">
    <defs>
      <symbol id="g" overflow="visible">
        <path d="m39.078-2.3281c-2.0117 1.043-4.1094 1.8281-6.2969 2.3594s-4.4648 0.79688-6.8281 0.79688c-7.0859 0-12.699-1.9766-16.844-5.9375-4.1367-3.957-6.2031-9.3281-6.2031-16.109 0-6.7891 2.0664-12.164 6.2031-16.125 4.1445-3.9688 9.7578-5.9531 16.844-5.9531 2.3633 0 4.6406 0.26562 6.8281 0.79688s4.2852 1.3242 6.2969 2.375v8.7969c-2.0312-1.3828-4.0391-2.3984-6.0156-3.0469-1.9688-0.64453-4.0469-0.96875-6.2344-0.96875-3.9062 0-6.9844 1.2578-9.2344 3.7656-2.2422 2.5-3.3594 5.9531-3.3594 10.359 0 4.3867 1.1172 7.8359 3.3594 10.344 2.25 2.5 5.3281 3.75 9.2344 3.75 2.1875 0 4.2656-0.32031 6.2344-0.96875 1.9766-0.64453 3.9844-1.6602 6.0156-3.0469z"></path>
      </symbol>
      <symbol id="f" overflow="visible">
        <path d="m16.031-40.953v9.0625h10.516v7.2812h-10.516v13.531c0 1.4805 0.28906 2.4805 0.875 3 0.59375 0.52344 1.7656 0.78125 3.5156 0.78125h5.2344v7.2969h-8.7344c-4.0312 0-6.8867-0.83594-8.5625-2.5156-1.6797-1.6875-2.5156-4.5391-2.5156-8.5625v-13.531h-5.0781v-7.2812h5.0781v-9.0625z"></path>
      </symbol>
      <symbol id="e" overflow="visible">
        <path d="m26.594-27.234v-17.078h10.266v44.312h-10.266v-4.6094c-1.3984 1.875-2.9453 3.25-4.6406 4.125-1.6875 0.875-3.6406 1.3125-5.8594 1.3125-3.9297 0-7.1562-1.5625-9.6875-4.6875-2.5234-3.125-3.7812-7.1445-3.7812-12.062 0-4.9141 1.2578-8.9375 3.7812-12.062 2.5312-3.125 5.7578-4.6875 9.6875-4.6875 2.1953 0 4.1445 0.44531 5.8438 1.3281 1.707 0.88672 3.2578 2.2578 4.6562 4.1094zm-6.7188 20.656c2.1875 0 3.8516-0.79688 5-2.3906 1.1445-1.5938 1.7188-3.9102 1.7188-6.9531 0-3.0391-0.57422-5.3594-1.7188-6.9531-1.1484-1.5938-2.8125-2.3906-5-2.3906-2.168 0-3.8242 0.79688-4.9688 2.3906-1.1484 1.5938-1.7188 3.9141-1.7188 6.9531 0 3.043 0.57031 5.3594 1.7188 6.9531 1.1445 1.5938 2.8008 2.3906 4.9688 2.3906z"></path>
      </symbol>
      <symbol id="d" overflow="visible">
        <path d="m21.875-6.5781c2.1758 0 3.8359-0.79688 4.9844-2.3906 1.1562-1.5938 1.7344-3.9102 1.7344-6.9531 0-3.0391-0.57812-5.3594-1.7344-6.9531-1.1484-1.5938-2.8086-2.3906-4.9844-2.3906-2.1875 0-3.8672 0.80469-5.0312 2.4062-1.168 1.6055-1.75 3.918-1.75 6.9375 0 3.0234 0.58203 5.3359 1.75 6.9375 1.1641 1.6055 2.8438 2.4062 5.0312 2.4062zm-6.7812-20.656c1.4062-1.8516 2.9609-3.2227 4.6719-4.1094 1.707-0.88281 3.6719-1.3281 5.8906-1.3281 3.9375 0 7.1641 1.5625 9.6875 4.6875 2.5195 3.125 3.7812 7.1484 3.7812 12.062 0 4.918-1.2617 8.9375-3.7812 12.062-2.5234 3.125-5.75 4.6875-9.6875 4.6875-2.2188 0-4.1836-0.44531-5.8906-1.3281-1.7109-0.88281-3.2656-2.2539-4.6719-4.1094v4.6094h-10.188v-44.312h10.188z"></path>
      </symbol>
      <symbol id="c" overflow="visible">
        <path d="m31.156-7.75h-17.141l-2.7031 7.75h-11.031l15.75-42.516h13.078l15.75 42.516h-11.031zm-14.406-7.8906h11.641l-5.8125-16.906z"></path>
      </symbol>
      <symbol id="b" overflow="visible">
        <path d="m36.969-19.422v19.422h-10.25v-14.812c0-2.7891-0.0625-4.707-0.1875-5.75-0.125-1.0391-0.33984-1.8125-0.64062-2.3125-0.39844-0.65625-0.9375-1.1719-1.625-1.5469s-1.4648-0.5625-2.3281-0.5625c-2.1367 0-3.8125 0.82422-5.0312 2.4688-1.2109 1.6484-1.8125 3.9219-1.8125 6.8281v15.688h-10.188v-44.312h10.188v17.078c1.5391-1.8516 3.1719-3.2227 4.8906-4.1094 1.7266-0.88281 3.6406-1.3281 5.7344-1.3281 3.6875 0 6.4844 1.1328 8.3906 3.3906 1.9062 2.2617 2.8594 5.5469 2.8594 9.8594z"></path>
      </symbol>
      <symbol id="a" overflow="visible">
        <path d="m22.391-26.062c1.7266 0 3.0352-0.37891 3.9219-1.1406 0.89453-0.75781 1.3438-1.8789 1.3438-3.3594 0-1.457-0.44922-2.5703-1.3438-3.3438-0.88672-0.76953-2.1953-1.1562-3.9219-1.1562h-6.0781v9zm0.35938 18.594c2.207 0 3.8633-0.46094 4.9688-1.3906 1.1133-0.92578 1.6719-2.332 1.6719-4.2188 0-1.832-0.55469-3.207-1.6562-4.125-1.0938-0.92578-2.7578-1.3906-4.9844-1.3906h-6.4375v11.125zm10.203-15.281c2.3516 0.67969 4.1758 1.9375 5.4688 3.7812 1.2891 1.8438 1.9375 4.1055 1.9375 6.7812 0 4.1055-1.3867 7.1641-4.1562 9.1719-2.7734 2.0117-6.9922 3.0156-12.656 3.0156h-18.188v-42.516h16.453c5.9062 0 10.18 0.89062 12.828 2.6719 2.6562 1.7812 3.9844 4.6406 3.9844 8.5781 0 2.0625-0.48438 3.8242-1.4531 5.2812-0.96875 1.4492-2.375 2.5273-4.2188 3.2344z"></path>
      </symbol>
    </defs>
    <g>
      <path d="m595 525h-490v-490h490zm-466.67-23.332h443.33l0.003907-443.34h-443.34zm381.58-318.42-16.496-16.496-201.75 201.75-85.086-85.086-16.496 16.496 101.58 101.58z"></path>
      <use x="70" y="735" xlink:href="#g"></use>
      <use x="220.503906" y="735" xlink:href="#f"></use>
      <use x="287.953125" y="735" xlink:href="#e"></use>
      <use x="350.015625" y="735" xlink:href="#d"></use>
      <use x="450.105469" y="735" xlink:href="#c"></use>
      <use x="598.105469" y="735" xlink:href="#b"></use>
      <use x="659.941406" y="735" xlink:href="#a"></use>
    </g>
  </symbol>
  <symbol version="1.1" xmlns="http://www.w3.org/2000/svg" viewBox="0 0 700 700" id="piechart">
    <g>
      <path d="m513.33 46.668h-326.66c-18.566 0-36.371 7.375-49.5 20.5-13.125 13.129-20.5 30.934-20.5 49.5v326.66c0 18.566 7.375 36.371 20.5 49.5 13.129 13.125 30.934 20.5 49.5 20.5h326.66c18.566 0 36.371-7.375 49.5-20.5 13.125-13.129 20.5-30.934 20.5-49.5v-326.66c0-18.566-7.375-36.371-20.5-49.5-13.129-13.125-30.934-20.5-49.5-20.5zm23.332 396.67 0.003907-0.003907c0 6.1914-2.4609 12.125-6.8359 16.5s-10.309 6.8359-16.5 6.8359h-326.66c-6.1914 0-12.125-2.4609-16.5-6.8359s-6.8359-10.309-6.8359-16.5v-326.66c0-6.1914 2.4609-12.125 6.8359-16.5s10.309-6.8359 16.5-6.8359h326.66c6.1914 0 12.125 2.4609 16.5 6.8359s6.8359 10.309 6.8359 16.5z"></path>
      <path d="m350 140c-37.129 0-72.738 14.75-98.996 41.004-26.254 26.258-41.004 61.867-41.004 98.996s14.75 72.738 41.004 98.996c26.258 26.254 61.867 41.004 98.996 41.004s72.738-14.75 98.996-41.004c26.254-26.258 41.004-61.867 41.004-98.996s-14.75-72.738-41.004-98.996c-26.258-26.254-61.867-41.004-98.996-41.004zm90.066 116.67h-66.734v-66.734c16.051 4.1875 30.695 12.582 42.426 24.309 11.727 11.73 20.121 26.375 24.309 42.426zm-90.066 116.66c-30.281-0.36328-58.504-15.395-75.703-40.32s-21.234-56.648-10.824-85.086 33.969-50.059 63.195-57.992v90.066c0 6.1875 2.457 12.125 6.832 16.5s10.312 6.832 16.5 6.832h90.066c-5.1602 19.984-16.797 37.695-33.094 50.363-16.297 12.664-36.332 19.57-56.973 19.637z"></path>
    </g>
  </symbol>
  <symbol version="1.1" xmlns="http://www.w3.org/2000/svg" xmlns:xlink="http://www.w3.org/1999/xlink" viewBox="0 0 700 700" id="pigbank">
    <defs>
      <symbol id="w" overflow="visible">
        <path d="m18.766-1.125c-0.96875 0.5-1.9805 0.875-3.0312 1.125-1.043 0.25781-2.1367 0.39062-3.2812 0.39062-3.3984 0-6.0898-0.94531-8.0781-2.8438-1.9922-1.9062-2.9844-4.4844-2.9844-7.7344 0-3.2578 0.99219-5.8359 2.9844-7.7344 1.9883-1.9062 4.6797-2.8594 8.0781-2.8594 1.1445 0 2.2383 0.13281 3.2812 0.39062 1.0508 0.25 2.0625 0.625 3.0312 1.125v4.2188c-0.98047-0.65625-1.9453-1.1406-2.8906-1.4531-0.94922-0.3125-1.9492-0.46875-3-0.46875-1.875 0-3.3516 0.60547-4.4219 1.8125-1.0742 1.1992-1.6094 2.8555-1.6094 4.9688 0 2.1055 0.53516 3.7617 1.6094 4.9688 1.0703 1.1992 2.5469 1.7969 4.4219 1.7969 1.0508 0 2.0508-0.14844 3-0.45312 0.94531-0.3125 1.9102-0.80078 2.8906-1.4688z"></path>
      </symbol>
      <symbol id="b" overflow="visible">
        <path d="m13.734-11.141c-0.4375-0.19531-0.87109-0.34375-1.2969-0.4375-0.41797-0.10156-0.83984-0.15625-1.2656-0.15625-1.2617 0-2.2305 0.40625-2.9062 1.2188-0.67969 0.80469-1.0156 1.9531-1.0156 3.4531v7.0625h-4.8906v-15.312h4.8906v2.5156c0.625-1 1.3438-1.7266 2.1562-2.1875 0.82031-0.46875 1.8008-0.70312 2.9375-0.70312 0.16406 0 0.34375 0.011719 0.53125 0.03125 0.19531 0.011719 0.47656 0.039062 0.84375 0.078125z"></path>
      </symbol>
      <symbol id="a" overflow="visible">
        <path d="m17.641-7.7031v1.4062h-11.453c0.125 1.1484 0.53906 2.0078 1.25 2.5781 0.70703 0.57422 1.7031 0.85938 2.9844 0.85938 1.0312 0 2.082-0.14844 3.1562-0.45312 1.082-0.3125 2.1914-0.77344 3.3281-1.3906v3.7656c-1.1562 0.4375-2.3125 0.76562-3.4688 0.98438-1.1562 0.22656-2.3125 0.34375-3.4688 0.34375-2.7734 0-4.9297-0.70312-6.4688-2.1094-1.5312-1.4062-2.2969-3.3789-2.2969-5.9219 0-2.5 0.75391-4.4609 2.2656-5.8906 1.5078-1.4375 3.582-2.1562 6.2188-2.1562 2.4062 0 4.332 0.73047 5.7812 2.1875 1.4453 1.4492 2.1719 3.3828 2.1719 5.7969zm-5.0312-1.625c0-0.92578-0.27344-1.6719-0.8125-2.2344-0.54297-0.57031-1.25-0.85938-2.125-0.85938-0.94922 0-1.7188 0.26562-2.3125 0.79688s-0.96484 1.2969-1.1094 2.2969z"></path>
      </symbol>
      <symbol id="f" overflow="visible">
        <path d="m9.2188-6.8906c-1.0234 0-1.793 0.17188-2.3125 0.51562-0.51172 0.34375-0.76562 0.85547-0.76562 1.5312 0 0.625 0.20703 1.1172 0.625 1.4688 0.41406 0.34375 0.98828 0.51562 1.7188 0.51562 0.92578 0 1.7031-0.32812 2.3281-0.98438 0.63281-0.66406 0.95312-1.4922 0.95312-2.4844v-0.5625zm7.4688-1.8438v8.7344h-4.9219v-2.2656c-0.65625 0.92969-1.3984 1.6055-2.2188 2.0312-0.82422 0.41406-1.8242 0.625-3 0.625-1.5859 0-2.8711-0.45703-3.8594-1.375-0.99219-0.92578-1.4844-2.1289-1.4844-3.6094 0-1.7891 0.61328-3.1016 1.8438-3.9375 1.2383-0.84375 3.1797-1.2656 5.8281-1.2656h2.8906v-0.39062c0-0.76953-0.30859-1.332-0.92188-1.6875-0.61719-0.36328-1.5703-0.54688-2.8594-0.54688-1.0547 0-2.0312 0.10547-2.9375 0.3125-0.89844 0.21094-1.7305 0.52344-2.5 0.9375v-3.7344c1.0391-0.25 2.0859-0.44141 3.1406-0.57812 1.0625-0.13281 2.125-0.20312 3.1875-0.20312 2.7578 0 4.75 0.54688 5.9688 1.6406 1.2266 1.0859 1.8438 2.8555 1.8438 5.3125z"></path>
      </symbol>
      <symbol id="c" overflow="visible">
        <path d="m7.7031-19.656v4.3438h5.0469v3.5h-5.0469v6.5c0 0.71094 0.14062 1.1875 0.42188 1.4375s0.83594 0.375 1.6719 0.375h2.5156v3.5h-4.1875c-1.9375 0-3.3125-0.39844-4.125-1.2031-0.80469-0.8125-1.2031-2.1797-1.2031-4.1094v-6.5h-2.4219v-3.5h2.4219v-4.3438z"></path>
      </symbol>
      <symbol id="l" overflow="visible">
        <path d="m12.766-13.078v-8.2031h4.9219v21.281h-4.9219v-2.2188c-0.66797 0.90625-1.4062 1.5703-2.2188 1.9844s-1.7578 0.625-2.8281 0.625c-1.8867 0-3.4336-0.75-4.6406-2.25-1.2109-1.5-1.8125-3.4258-1.8125-5.7812 0-2.3633 0.60156-4.2969 1.8125-5.7969 1.207-1.5 2.7539-2.25 4.6406-2.25 1.0625 0 2 0.21484 2.8125 0.64062 0.82031 0.42969 1.5664 1.0859 2.2344 1.9688zm-3.2188 9.9219c1.0391 0 1.8359-0.37891 2.3906-1.1406 0.55078-0.76953 0.82812-1.8828 0.82812-3.3438 0-1.457-0.27734-2.5664-0.82812-3.3281-0.55469-0.76953-1.3516-1.1562-2.3906-1.1562-1.043 0-1.8398 0.38672-2.3906 1.1562-0.55469 0.76172-0.82812 1.8711-0.82812 3.3281 0 1.4609 0.27344 2.5742 0.82812 3.3438 0.55078 0.76172 1.3477 1.1406 2.3906 1.1406z"></path>
      </symbol>
      <symbol id="k" overflow="visible">
        <path d="m10.5-3.1562c1.0508 0 1.8516-0.37891 2.4062-1.1406 0.55078-0.76953 0.82812-1.8828 0.82812-3.3438 0-1.457-0.27734-2.5664-0.82812-3.3281-0.55469-0.76953-1.3555-1.1562-2.4062-1.1562-1.0547 0-1.8594 0.38672-2.4219 1.1562-0.55469 0.77344-0.82812 1.8828-0.82812 3.3281 0 1.4492 0.27344 2.5586 0.82812 3.3281 0.5625 0.77344 1.3672 1.1562 2.4219 1.1562zm-3.25-9.9219c0.67578-0.88281 1.4219-1.5391 2.2344-1.9688 0.82031-0.42578 1.7656-0.64062 2.8281-0.64062 1.8945 0 3.4453 0.75 4.6562 2.25 1.207 1.5 1.8125 3.4336 1.8125 5.7969 0 2.3555-0.60547 4.2812-1.8125 5.7812-1.2109 1.5-2.7617 2.25-4.6562 2.25-1.0625 0-2.0078-0.21094-2.8281-0.625-0.8125-0.42578-1.5586-1.0859-2.2344-1.9844v2.2188h-4.8906v-21.281h4.8906z"></path>
      </symbol>
      <symbol id="e" overflow="visible">
        <path d="m0.34375-15.312h4.8906l4.125 10.391 3.5-10.391h4.8906l-6.4375 16.766c-0.64844 1.6953-1.4023 2.8828-2.2656 3.5625-0.86719 0.6875-2 1.0312-3.4062 1.0312h-2.8438v-3.2188h1.5312c0.83203 0 1.4375-0.13672 1.8125-0.40625 0.38281-0.26172 0.67969-0.73047 0.89062-1.4062l0.14062-0.42188z"></path>
      </symbol>
      <symbol id="j" overflow="visible">
        <path d="m14.953-3.7188h-8.2188l-1.3125 3.7188h-5.2812l7.5625-20.406h6.2656l7.5625 20.406h-5.2812zm-6.9062-3.7812h5.5781l-2.7812-8.125z"></path>
      </symbol>
      <symbol id="i" overflow="visible">
        <path d="m16.547-12.766c0.61328-0.94531 1.3477-1.6719 2.2031-2.1719 0.85156-0.5 1.7891-0.75 2.8125-0.75 1.7578 0 3.0977 0.54688 4.0156 1.6406 0.92578 1.0859 1.3906 2.6562 1.3906 4.7188v9.3281h-4.9219v-7.9844-0.35938c0.007813-0.13281 0.015625-0.32031 0.015625-0.5625 0-1.082-0.16406-1.8633-0.48438-2.3438-0.3125-0.48828-0.82422-0.73438-1.5312-0.73438-0.92969 0-1.6484 0.38672-2.1562 1.1562-0.51172 0.76172-0.77344 1.8672-0.78125 3.3125v7.5156h-4.9219v-7.9844c0-1.6953-0.14844-2.7852-0.4375-3.2656-0.29297-0.48828-0.8125-0.73438-1.5625-0.73438-0.9375 0-1.6641 0.38672-2.1719 1.1562-0.51172 0.76172-0.76562 1.8594-0.76562 3.2969v7.5312h-4.9219v-15.312h4.9219v2.2344c0.60156-0.86328 1.2891-1.5156 2.0625-1.9531 0.78125-0.4375 1.6406-0.65625 2.5781-0.65625 1.0625 0 2 0.25781 2.8125 0.76562 0.8125 0.51172 1.4258 1.2305 1.8438 2.1562z"></path>
      </symbol>
      <symbol id="h" overflow="visible">
        <path d="m2.3594-15.312h4.8906v15.312h-4.8906zm0-5.9688h4.8906v4h-4.8906z"></path>
      </symbol>
      <symbol id="v" overflow="visible">
        <path d="m14.312-14.828v3.7188c-1.043-0.4375-2.0547-0.76562-3.0312-0.98438-0.98047-0.21875-1.9023-0.32812-2.7656-0.32812-0.92969 0-1.6211 0.11719-2.0781 0.34375-0.44922 0.23047-0.67188 0.58984-0.67188 1.0781 0 0.38672 0.17188 0.68359 0.51562 0.89062 0.34375 0.21094 0.95703 0.36719 1.8438 0.46875l0.85938 0.125c2.5078 0.32422 4.1953 0.85156 5.0625 1.5781 0.86328 0.73047 1.2969 1.8711 1.2969 3.4219 0 1.6367-0.60547 2.8672-1.8125 3.6875-1.1992 0.8125-2.9922 1.2188-5.375 1.2188-1.0234 0-2.0742-0.078125-3.1562-0.23438-1.0742-0.15625-2.1797-0.39453-3.3125-0.71875v-3.7188c0.96875 0.48047 1.9609 0.83984 2.9844 1.0781 1.0312 0.23047 2.0781 0.34375 3.1406 0.34375 0.95703 0 1.6758-0.12891 2.1562-0.39062 0.47656-0.26953 0.71875-0.66406 0.71875-1.1875 0-0.4375-0.16797-0.75781-0.5-0.96875-0.33594-0.21875-0.99609-0.38281-1.9844-0.5l-0.85938-0.10938c-2.1797-0.26953-3.7031-0.77344-4.5781-1.5156-0.875-0.73828-1.3125-1.8594-1.3125-3.3594 0-1.625 0.55078-2.8281 1.6562-3.6094 1.1133-0.78906 2.8203-1.1875 5.125-1.1875 0.89453 0 1.8359 0.074219 2.8281 0.21875 1 0.13672 2.082 0.35156 3.25 0.64062z"></path>
      </symbol>
      <symbol id="g" overflow="visible">
        <path d="m17.75-9.3281v9.3281h-4.9219v-7.1094c0-1.3438-0.03125-2.2656-0.09375-2.7656s-0.16797-0.86719-0.3125-1.1094c-0.1875-0.3125-0.44922-0.55469-0.78125-0.73438-0.32422-0.17578-0.69531-0.26562-1.1094-0.26562-1.0234 0-1.8242 0.39844-2.4062 1.1875-0.58594 0.78125-0.875 1.8711-0.875 3.2656v7.5312h-4.8906v-21.281h4.8906v8.2031c0.73828-0.88281 1.5195-1.5391 2.3438-1.9688 0.83203-0.42578 1.75-0.64062 2.75-0.64062 1.7695 0 3.1133 0.54688 4.0312 1.6406 0.91406 1.0859 1.375 2.6562 1.375 4.7188z"></path>
      </symbol>
      <symbol id="u" overflow="visible">
        <path d="m2.3594-21.281h4.8906v11.594l5.625-5.625h5.6875l-7.4688 7.0312 8.0625 8.2812h-5.9375l-5.9688-6.3906v6.3906h-4.8906z"></path>
      </symbol>
      <symbol id="t" overflow="visible">
        <path d="m2.3594-21.281h4.8906v21.281h-4.8906z"></path>
      </symbol>
      <symbol id="s" overflow="visible">
        <path d="m12.422-21.281v3.2188h-2.7031c-0.6875 0-1.1719 0.125-1.4531 0.375-0.27344 0.25-0.40625 0.6875-0.40625 1.3125v1.0625h4.1875v3.5h-4.1875v11.812h-4.8906v-11.812h-2.4375v-3.5h2.4375v-1.0625c0-1.6641 0.46094-2.8984 1.3906-3.7031 0.92578-0.80078 2.3672-1.2031 4.3281-1.2031z"></path>
      </symbol>
      <symbol id="d" overflow="visible">
        <path d="m9.6406-12.188c-1.0859 0-1.9141 0.39062-2.4844 1.1719-0.57422 0.78125-0.85938 1.9062-0.85938 3.375s0.28516 2.5938 0.85938 3.375c0.57031 0.77344 1.3984 1.1562 2.4844 1.1562 1.0625 0 1.875-0.38281 2.4375-1.1562 0.57031-0.78125 0.85938-1.9062 0.85938-3.375s-0.28906-2.5938-0.85938-3.375c-0.5625-0.78125-1.375-1.1719-2.4375-1.1719zm0-3.5c2.6328 0 4.6914 0.71484 6.1719 2.1406 1.4766 1.418 2.2188 3.3867 2.2188 5.9062 0 2.5117-0.74219 4.4805-2.2188 5.9062-1.4805 1.418-3.5391 2.125-6.1719 2.125-2.6484 0-4.7148-0.70703-6.2031-2.125-1.4922-1.4258-2.2344-3.3945-2.2344-5.9062 0-2.5195 0.74219-4.4883 2.2344-5.9062 1.4883-1.4258 3.5547-2.1406 6.2031-2.1406z"></path>
      </symbol>
      <symbol id="r" overflow="visible">
        <path d="m2.5781-20.406h5.875l7.4219 14v-14h4.9844v20.406h-5.875l-7.4219-14v14h-4.9844z"></path>
      </symbol>
      <symbol id="q" overflow="visible">
        <path d="m2.1875-5.9688v-9.3438h4.9219v1.5312c0 0.83594-0.007813 1.875-0.015625 3.125-0.011719 1.25-0.015625 2.0859-0.015625 2.5 0 1.2422 0.03125 2.1328 0.09375 2.6719 0.070313 0.54297 0.17969 0.93359 0.32812 1.1719 0.20703 0.32422 0.47266 0.57422 0.79688 0.75 0.32031 0.16797 0.69141 0.25 1.1094 0.25 1.0195 0 1.8203-0.39062 2.4062-1.1719 0.58203-0.78125 0.875-1.8672 0.875-3.2656v-7.5625h4.8906v15.312h-4.8906v-2.2188c-0.74219 0.89844-1.5234 1.5586-2.3438 1.9844-0.82422 0.41406-1.7344 0.625-2.7344 0.625-1.7617 0-3.1055-0.53906-4.0312-1.625-0.92969-1.082-1.3906-2.6602-1.3906-4.7344z"></path>
      </symbol>
      <symbol id="p" overflow="visible">
        <path d="m17.75-9.3281v9.3281h-4.9219v-7.1406c0-1.3203-0.03125-2.2344-0.09375-2.7344s-0.16797-0.86719-0.3125-1.1094c-0.1875-0.3125-0.44922-0.55469-0.78125-0.73438-0.32422-0.17578-0.69531-0.26562-1.1094-0.26562-1.0234 0-1.8242 0.39844-2.4062 1.1875-0.58594 0.78125-0.875 1.8711-0.875 3.2656v7.5312h-4.8906v-15.312h4.8906v2.2344c0.73828-0.88281 1.5195-1.5391 2.3438-1.9688 0.83203-0.42578 1.75-0.64062 2.75-0.64062 1.7695 0 3.1133 0.54688 4.0312 1.6406 0.91406 1.0859 1.375 2.6562 1.375 4.7188z"></path>
      </symbol>
      <symbol id="o" overflow="visible">
        <path d="m2.5781-20.406h8.7344c2.5938 0 4.582 0.57812 5.9688 1.7344 1.3945 1.1484 2.0938 2.7891 2.0938 4.9219 0 2.1367-0.69922 3.7812-2.0938 4.9375-1.3867 1.1562-3.375 1.7344-5.9688 1.7344h-3.4844v7.0781h-5.25zm5.25 3.8125v5.7031h2.9219c1.0195 0 1.8047-0.25 2.3594-0.75 0.5625-0.5 0.84375-1.2031 0.84375-2.1094 0-0.91406-0.28125-1.6172-0.84375-2.1094-0.55469-0.48828-1.3398-0.73438-2.3594-0.73438z"></path>
      </symbol>
      <symbol id="n" overflow="visible">
        <path d="m2.3594-15.312h4.8906v15.031c0 2.0508-0.49609 3.6172-1.4844 4.7031-0.98047 1.082-2.4062 1.625-4.2812 1.625h-2.4219v-3.2188h0.85938c0.92578 0 1.5625-0.21094 1.9062-0.625 0.35156-0.41797 0.53125-1.2461 0.53125-2.4844zm0-5.9688h4.8906v4h-4.8906z"></path>
      </symbol>
      <symbol id="m" overflow="visible">
        <path d="m14.719-14.828v3.9844c-0.65625-0.45703-1.3242-0.79688-2-1.0156-0.66797-0.21875-1.3594-0.32812-2.0781-0.32812-1.3672 0-2.4336 0.40234-3.2031 1.2031-0.76172 0.79297-1.1406 1.9062-1.1406 3.3438 0 1.4297 0.37891 2.543 1.1406 3.3438 0.76953 0.79297 1.8359 1.1875 3.2031 1.1875 0.75781 0 1.4844-0.10938 2.1719-0.32812 0.6875-0.22656 1.3203-0.56641 1.9062-1.0156v4c-0.76172 0.28125-1.5391 0.48828-2.3281 0.625-0.78125 0.14453-1.5742 0.21875-2.375 0.21875-2.7617 0-4.9219-0.70703-6.4844-2.125-1.5547-1.4141-2.3281-3.3828-2.3281-5.9062 0-2.5312 0.77344-4.5039 2.3281-5.9219 1.5625-1.4141 3.7227-2.125 6.4844-2.125 0.80078 0 1.5938 0.074219 2.375 0.21875 0.78125 0.13672 1.5547 0.35156 2.3281 0.64062z"></path>
      </symbol>
    </defs>
    <g>
      <path d="m322 50.398c-33.82 0-61.602 27.781-61.602 61.602s27.781 61.602 61.602 61.602 61.602-27.781 61.602-61.602-27.781-61.602-61.602-61.602zm0 33.602c15.664 0 28 12.336 28 28s-12.336 28-28 28-28-12.336-28-28 12.336-28 28-28zm-130.55 78.398c-4.1445 0.4375-7.9805 2.3945-10.762 5.5-2.7812 3.1055-4.3086 7.1328-4.2891 11.301v70.699c-15.043 12.57-24.719 27.828-32.023 41.301h-29.574c-4.457 0-8.7305 1.7695-11.879 4.9219-3.1523 3.1523-4.9219 7.4219-4.9219 11.879v61.602c0 4.4531 1.7695 8.7266 4.9219 11.879 3.1484 3.1484 7.4219 4.918 11.879 4.918h30.098c12.141 19.191 30.121 36.098 53.902 49v57.402c0 4.4531 1.7695 8.7266 4.9219 11.879 3.1484 3.1484 7.4219 4.918 11.879 4.9219h67.199c4.4531-0.003906 8.7266-1.7734 11.879-4.9219 3.1484-3.1523 4.918-7.4258 4.9219-11.879v-30.625c8.6953 1.3906 17.957 2.625 28 2.625 10.039 0 19.305-1.2344 28-2.625v30.625c0 4.4531 1.7695 8.7266 4.918 11.879 3.1523 3.1484 7.4258 4.918 11.879 4.9219h67.203c4.4531-0.003906 8.7266-1.7734 11.879-4.9219 3.1484-3.1523 4.918-7.4258 4.918-11.879v-57.75c38.84-20.664 67.473-51.309 72.102-88.375 37.887-4.4609 73.5-36.621 73.5-83.477 0.09375-4.5469-1.6562-8.9375-4.8555-12.168s-7.5742-5.0273-12.121-4.9805c-4.4844 0.046875-8.7656 1.8828-11.891 5.1055-3.1211 3.2227-4.8242 7.5586-4.7344 12.043 0 29.105-21.391 46.91-42.348 50.051-7.8398-28.637-29.953-53.18-59.152-70.875-36.68-22.23-85.516-35.176-139.3-35.176-26.91 0-44.219 2.8164-64.051 8.4023-5.3906-9.0312-12.086-17.551-20.824-26.25-13.473-13.414-28.293-26.953-49.527-26.953-0.58203-0.027344-1.168-0.027344-1.75 0zm18.551 43.926c3.0508 2.2305 6.0312 3.9453 8.9258 6.8242 10.668 10.625 19.535 26.02 19.598 26.25 1.1641 4.5352 4.168 8.3828 8.2891 10.605 4.1211 2.2266 8.9805 2.6328 13.414 1.1211 25.711-8.6602 35.629-10.324 67.375-10.324 48.277 0 91.77 11.969 121.97 30.273 30.203 18.305 46.027 41.488 46.027 64.926 0 27.535-22.461 55.453-63 74.199-2.9453 1.3516-5.4375 3.5234-7.1758 6.2539s-2.6484 5.9102-2.625 9.1484v50.398h-33.602v-33.602c0-4.8828-2.1211-9.5234-5.8203-12.719-3.6953-3.1914-8.5977-4.6172-13.43-3.9062-15.227 2.3008-29.391 5.4258-42.348 5.4258-12.957 0-27.125-3.125-42.352-5.4258-4.832-0.71094-9.7344 0.71484-13.43 3.9062-3.6953 3.1953-5.8203 7.8359-5.8203 12.719v33.602h-33.602v-50.398c0.027343-3.2383-0.88672-6.418-2.625-9.1484-1.7383-2.7305-4.2305-4.9023-7.1719-6.2539-27.066-12.516-43.945-29.586-53.727-48.473-1.4336-2.7031-3.5742-4.9609-6.1953-6.5312-2.6211-1.5742-5.6211-2.4023-8.6797-2.3945h-22.398v-28h22.398c3.0742-0.011719 6.0859-0.86719 8.7109-2.4688 2.6211-1.6055 4.7539-3.8984 6.1641-6.6328 7.8906-15.199 20.652-35.539 33.602-44.098 4.6953-3.1133 7.5195-8.3672 7.5234-14zm65.449 68.074c-4.457 0.23437-8.6367 2.2266-11.625 5.5391-2.9883 3.3164-4.5352 7.6797-4.3008 12.137 0.23047 4.457 2.2227 8.6367 5.5391 11.625s7.6797 4.5352 12.137 4.3008h89.602c4.4961 0.0625 8.832-1.6797 12.031-4.8359 3.2031-3.1562 5.0078-7.4688 5.0078-11.965 0-4.4961-1.8047-8.8047-5.0078-11.965-3.1992-3.1562-7.5352-4.8984-12.031-4.8359h-89.602c-0.58203-0.027344-1.168-0.027344-1.75 0zm-59.848 16.801c-9.2812 0-16.801 7.5234-16.801 16.801s7.5195 16.801 16.801 16.801c9.2773 0 16.797-7.5234 16.797-16.801s-7.5195-16.801-16.797-16.801z"></path>
      <use x="70" y="644" xlink:href="#w"></use>
      <use x="90.550781" y="644" xlink:href="#b"></use>
      <use x="104.359375" y="644" xlink:href="#a"></use>
      <use x="123.347656" y="644" xlink:href="#f"></use>
      <use x="142.242188" y="644" xlink:href="#c"></use>
      <use x="155.628906" y="644" xlink:href="#a"></use>
      <use x="174.617188" y="644" xlink:href="#l"></use>
      <use x="204.410156" y="644" xlink:href="#k"></use>
      <use x="224.453125" y="644" xlink:href="#e"></use>
      <use x="252.453125" y="644" xlink:href="#j"></use>
      <use x="274.121094" y="644" xlink:href="#i"></use>
      <use x="303.296875" y="644" xlink:href="#h"></use>
      <use x="312.894531" y="644" xlink:href="#b"></use>
      <use x="326.703125" y="644" xlink:href="#e"></use>
      <use x="344.953125" y="644" xlink:href="#v"></use>
      <use x="361.621094" y="644" xlink:href="#g"></use>
      <use x="381.554688" y="644" xlink:href="#f"></use>
      <use x="400.449219" y="644" xlink:href="#u"></use>
      <use x="419.070312" y="644" xlink:href="#h"></use>
      <use x="428.667969" y="644" xlink:href="#a"></use>
      <use x="447.65625" y="644" xlink:href="#t"></use>
      <use x="70" y="672" xlink:href="#s"></use>
      <use x="82.183594" y="672" xlink:href="#b"></use>
      <use x="95.992188" y="672" xlink:href="#d"></use>
      <use x="115.226562" y="672" xlink:href="#i"></use>
      <use x="154.152344" y="672" xlink:href="#c"></use>
      <use x="167.535156" y="672" xlink:href="#g"></use>
      <use x="187.46875" y="672" xlink:href="#a"></use>
      <use x="216.207031" y="672" xlink:href="#r"></use>
      <use x="239.640625" y="672" xlink:href="#d"></use>
      <use x="258.878906" y="672" xlink:href="#q"></use>
      <use x="278.8125" y="672" xlink:href="#p"></use>
      <use x="308.492188" y="672" xlink:href="#o"></use>
      <use x="329.015625" y="672" xlink:href="#b"></use>
      <use x="342.820312" y="672" xlink:href="#d"></use>
      <use x="362.058594" y="672" xlink:href="#n"></use>
      <use x="371.65625" y="672" xlink:href="#a"></use>
      <use x="390.648438" y="672" xlink:href="#m"></use>
      <use x="407.242188" y="672" xlink:href="#c"></use>
    </g>
  </symbol>
  <symbol version="1.1" xmlns="http://www.w3.org/2000/svg" viewBox="0 0 700 700" id="note">
    <g>
      <path d="m550.25 13.645v546.36h-400.5v-546.36h40.324v-13.645h12.797v13.645h17.91v-13.645h12.797v13.645h17.91v-13.645h12.797v13.645h17.91v-13.645h12.797v13.645h17.91v-13.645h12.797v13.645h17.91v-13.645h12.797v13.645h17.91v-13.645h12.797v13.645h17.91v-13.645h12.797v13.645h17.91v-13.645h12.797v13.645h17.91v-13.645h12.797v13.645h17.91v-13.645h12.797v13.645h40.316zm-53.113 24.621v-11.824h-17.91v11.824h-12.797v-11.824h-17.91v11.824h-12.797v-11.824h-17.91v11.824h-12.797v-11.824h-17.91v11.824h-12.797v-11.824h-17.91v11.824h-12.797v-11.824h-17.91v11.824h-12.797v-11.824h-17.91v11.824h-12.797v-11.824h-17.91v11.824h-12.797v-11.824h-17.91v11.824h-12.797v-11.824h-17.91v11.824h-12.797v-11.824h-27.527v520.76h374.91v-520.76h-27.523v11.824h-12.797z"></path>
      <path d="m298.18 82.73h187.12v12.797h-187.12z"></path>
      <path d="m214.69 144.14h270.62v12.797h-270.62z"></path>
      <path d="m214.69 205.55h270.62v12.797h-270.62z"></path>
      <path d="m214.69 266.97h270.62v12.797h-270.62z"></path>
      <path d="m214.69 328.38h270.62v12.797h-270.62z"></path>
      <path d="m214.69 389.79h270.62v12.797h-270.62z"></path>
    </g>
  </symbol>
  <symbol version="1.1" xmlns="http://www.w3.org/2000/svg" xmlns:xlink="http://www.w3.org/1999/xlink" viewBox="0 0 700 700" id="threedirectionarrow">
    <defs>
      <symbol id="v" overflow="visible">
        <path d="m18.766-1.125c-0.96875 0.5-1.9805 0.875-3.0312 1.125-1.043 0.25781-2.1367 0.39062-3.2812 0.39062-3.3984 0-6.0898-0.94531-8.0781-2.8438-1.9922-1.9062-2.9844-4.4844-2.9844-7.7344 0-3.2578 0.99219-5.8359 2.9844-7.7344 1.9883-1.9062 4.6797-2.8594 8.0781-2.8594 1.1445 0 2.2383 0.13281 3.2812 0.39062 1.0508 0.25 2.0625 0.625 3.0312 1.125v4.2188c-0.98047-0.65625-1.9453-1.1406-2.8906-1.4531-0.94922-0.3125-1.9492-0.46875-3-0.46875-1.875 0-3.3516 0.60547-4.4219 1.8125-1.0742 1.1992-1.6094 2.8555-1.6094 4.9688 0 2.1055 0.53516 3.7617 1.6094 4.9688 1.0703 1.1992 2.5469 1.7969 4.4219 1.7969 1.0508 0 2.0508-0.14844 3-0.45312 0.94531-0.3125 1.9102-0.80078 2.8906-1.4688z"></path>
      </symbol>
      <symbol id="d" overflow="visible">
        <path d="m13.734-11.141c-0.4375-0.19531-0.87109-0.34375-1.2969-0.4375-0.41797-0.10156-0.83984-0.15625-1.2656-0.15625-1.2617 0-2.2305 0.40625-2.9062 1.2188-0.67969 0.80469-1.0156 1.9531-1.0156 3.4531v7.0625h-4.8906v-15.312h4.8906v2.5156c0.625-1 1.3438-1.7266 2.1562-2.1875 0.82031-0.46875 1.8008-0.70312 2.9375-0.70312 0.16406 0 0.34375 0.011719 0.53125 0.03125 0.19531 0.011719 0.47656 0.039062 0.84375 0.078125z"></path>
      </symbol>
      <symbol id="a" overflow="visible">
        <path d="m17.641-7.7031v1.4062h-11.453c0.125 1.1484 0.53906 2.0078 1.25 2.5781 0.70703 0.57422 1.7031 0.85938 2.9844 0.85938 1.0312 0 2.082-0.14844 3.1562-0.45312 1.082-0.3125 2.1914-0.77344 3.3281-1.3906v3.7656c-1.1562 0.4375-2.3125 0.76562-3.4688 0.98438-1.1562 0.22656-2.3125 0.34375-3.4688 0.34375-2.7734 0-4.9297-0.70312-6.4688-2.1094-1.5312-1.4062-2.2969-3.3789-2.2969-5.9219 0-2.5 0.75391-4.4609 2.2656-5.8906 1.5078-1.4375 3.582-2.1562 6.2188-2.1562 2.4062 0 4.332 0.73047 5.7812 2.1875 1.4453 1.4492 2.1719 3.3828 2.1719 5.7969zm-5.0312-1.625c0-0.92578-0.27344-1.6719-0.8125-2.2344-0.54297-0.57031-1.25-0.85938-2.125-0.85938-0.94922 0-1.7188 0.26562-2.3125 0.79688s-0.96484 1.2969-1.1094 2.2969z"></path>
      </symbol>
      <symbol id="c" overflow="visible">
        <path d="m9.2188-6.8906c-1.0234 0-1.793 0.17188-2.3125 0.51562-0.51172 0.34375-0.76562 0.85547-0.76562 1.5312 0 0.625 0.20703 1.1172 0.625 1.4688 0.41406 0.34375 0.98828 0.51562 1.7188 0.51562 0.92578 0 1.7031-0.32812 2.3281-0.98438 0.63281-0.66406 0.95312-1.4922 0.95312-2.4844v-0.5625zm7.4688-1.8438v8.7344h-4.9219v-2.2656c-0.65625 0.92969-1.3984 1.6055-2.2188 2.0312-0.82422 0.41406-1.8242 0.625-3 0.625-1.5859 0-2.8711-0.45703-3.8594-1.375-0.99219-0.92578-1.4844-2.1289-1.4844-3.6094 0-1.7891 0.61328-3.1016 1.8438-3.9375 1.2383-0.84375 3.1797-1.2656 5.8281-1.2656h2.8906v-0.39062c0-0.76953-0.30859-1.332-0.92188-1.6875-0.61719-0.36328-1.5703-0.54688-2.8594-0.54688-1.0547 0-2.0312 0.10547-2.9375 0.3125-0.89844 0.21094-1.7305 0.52344-2.5 0.9375v-3.7344c1.0391-0.25 2.0859-0.44141 3.1406-0.57812 1.0625-0.13281 2.125-0.20312 3.1875-0.20312 2.7578 0 4.75 0.54688 5.9688 1.6406 1.2266 1.0859 1.8438 2.8555 1.8438 5.3125z"></path>
      </symbol>
      <symbol id="b" overflow="visible">
        <path d="m7.7031-19.656v4.3438h5.0469v3.5h-5.0469v6.5c0 0.71094 0.14062 1.1875 0.42188 1.4375s0.83594 0.375 1.6719 0.375h2.5156v3.5h-4.1875c-1.9375 0-3.3125-0.39844-4.125-1.2031-0.80469-0.8125-1.2031-2.1797-1.2031-4.1094v-6.5h-2.4219v-3.5h2.4219v-4.3438z"></path>
      </symbol>
      <symbol id="l" overflow="visible">
        <path d="m12.766-13.078v-8.2031h4.9219v21.281h-4.9219v-2.2188c-0.66797 0.90625-1.4062 1.5703-2.2188 1.9844s-1.7578 0.625-2.8281 0.625c-1.8867 0-3.4336-0.75-4.6406-2.25-1.2109-1.5-1.8125-3.4258-1.8125-5.7812 0-2.3633 0.60156-4.2969 1.8125-5.7969 1.207-1.5 2.7539-2.25 4.6406-2.25 1.0625 0 2 0.21484 2.8125 0.64062 0.82031 0.42969 1.5664 1.0859 2.2344 1.9688zm-3.2188 9.9219c1.0391 0 1.8359-0.37891 2.3906-1.1406 0.55078-0.76953 0.82812-1.8828 0.82812-3.3438 0-1.457-0.27734-2.5664-0.82812-3.3281-0.55469-0.76953-1.3516-1.1562-2.3906-1.1562-1.043 0-1.8398 0.38672-2.3906 1.1562-0.55469 0.76172-0.82812 1.8711-0.82812 3.3281 0 1.4609 0.27344 2.5742 0.82812 3.3438 0.55078 0.76172 1.3477 1.1406 2.3906 1.1406z"></path>
      </symbol>
      <symbol id="k" overflow="visible">
        <path d="m10.5-3.1562c1.0508 0 1.8516-0.37891 2.4062-1.1406 0.55078-0.76953 0.82812-1.8828 0.82812-3.3438 0-1.457-0.27734-2.5664-0.82812-3.3281-0.55469-0.76953-1.3555-1.1562-2.4062-1.1562-1.0547 0-1.8594 0.38672-2.4219 1.1562-0.55469 0.77344-0.82812 1.8828-0.82812 3.3281 0 1.4492 0.27344 2.5586 0.82812 3.3281 0.5625 0.77344 1.3672 1.1562 2.4219 1.1562zm-3.25-9.9219c0.67578-0.88281 1.4219-1.5391 2.2344-1.9688 0.82031-0.42578 1.7656-0.64062 2.8281-0.64062 1.8945 0 3.4453 0.75 4.6562 2.25 1.207 1.5 1.8125 3.4336 1.8125 5.7969 0 2.3555-0.60547 4.2812-1.8125 5.7812-1.2109 1.5-2.7617 2.25-4.6562 2.25-1.0625 0-2.0078-0.21094-2.8281-0.625-0.8125-0.42578-1.5586-1.0859-2.2344-1.9844v2.2188h-4.8906v-21.281h4.8906z"></path>
      </symbol>
      <symbol id="g" overflow="visible">
        <path d="m0.34375-15.312h4.8906l4.125 10.391 3.5-10.391h4.8906l-6.4375 16.766c-0.64844 1.6953-1.4023 2.8828-2.2656 3.5625-0.86719 0.6875-2 1.0312-3.4062 1.0312h-2.8438v-3.2188h1.5312c0.83203 0 1.4375-0.13672 1.8125-0.40625 0.38281-0.26172 0.67969-0.73047 0.89062-1.4062l0.14062-0.42188z"></path>
      </symbol>
      <symbol id="j" overflow="visible">
        <path d="m2.5781-20.406h5.25v7.4375l7.5938-7.4375h6.1094l-9.8281 9.6562 10.844 10.75h-6.5938l-8.125-8.0469v8.0469h-5.25z"></path>
      </symbol>
      <symbol id="i" overflow="visible">
        <path d="m2.3594-21.281h4.8906v21.281h-4.8906z"></path>
      </symbol>
      <symbol id="h" overflow="visible">
        <path d="m2.3594-15.312h4.8906v15.312h-4.8906zm0-5.9688h4.8906v4h-4.8906z"></path>
      </symbol>
      <symbol id="f" overflow="visible">
        <path d="m17.75-9.3281v9.3281h-4.9219v-7.1406c0-1.3203-0.03125-2.2344-0.09375-2.7344s-0.16797-0.86719-0.3125-1.1094c-0.1875-0.3125-0.44922-0.55469-0.78125-0.73438-0.32422-0.17578-0.69531-0.26562-1.1094-0.26562-1.0234 0-1.8242 0.39844-2.4062 1.1875-0.58594 0.78125-0.875 1.8711-0.875 3.2656v7.5312h-4.8906v-15.312h4.8906v2.2344c0.73828-0.88281 1.5195-1.5391 2.3438-1.9688 0.83203-0.42578 1.75-0.64062 2.75-0.64062 1.7695 0 3.1133 0.54688 4.0312 1.6406 0.91406 1.0859 1.375 2.6562 1.375 4.7188z"></path>
      </symbol>
      <symbol id="u" overflow="visible">
        <path d="m2.5781-20.406h5.25v20.406h-5.25z"></path>
      </symbol>
      <symbol id="t" overflow="visible">
        <path d="m12.422-21.281v3.2188h-2.7031c-0.6875 0-1.1719 0.125-1.4531 0.375-0.27344 0.25-0.40625 0.6875-0.40625 1.3125v1.0625h4.1875v3.5h-4.1875v11.812h-4.8906v-11.812h-2.4375v-3.5h2.4375v-1.0625c0-1.6641 0.46094-2.8984 1.3906-3.7031 0.92578-0.80078 2.3672-1.2031 4.3281-1.2031z"></path>
      </symbol>
      <symbol id="e" overflow="visible">
        <path d="m9.6406-12.188c-1.0859 0-1.9141 0.39062-2.4844 1.1719-0.57422 0.78125-0.85938 1.9062-0.85938 3.375s0.28516 2.5938 0.85938 3.375c0.57031 0.77344 1.3984 1.1562 2.4844 1.1562 1.0625 0 1.875-0.38281 2.4375-1.1562 0.57031-0.78125 0.85938-1.9062 0.85938-3.375s-0.28906-2.5938-0.85938-3.375c-0.5625-0.78125-1.375-1.1719-2.4375-1.1719zm0-3.5c2.6328 0 4.6914 0.71484 6.1719 2.1406 1.4766 1.418 2.2188 3.3867 2.2188 5.9062 0 2.5117-0.74219 4.4805-2.2188 5.9062-1.4805 1.418-3.5391 2.125-6.1719 2.125-2.6484 0-4.7148-0.70703-6.2031-2.125-1.4922-1.4258-2.2344-3.3945-2.2344-5.9062 0-2.5195 0.74219-4.4883 2.2344-5.9062 1.4883-1.4258 3.5547-2.1406 6.2031-2.1406z"></path>
      </symbol>
      <symbol id="s" overflow="visible">
        <path d="m16.547-12.766c0.61328-0.94531 1.3477-1.6719 2.2031-2.1719 0.85156-0.5 1.7891-0.75 2.8125-0.75 1.7578 0 3.0977 0.54688 4.0156 1.6406 0.92578 1.0859 1.3906 2.6562 1.3906 4.7188v9.3281h-4.9219v-7.9844-0.35938c0.007813-0.13281 0.015625-0.32031 0.015625-0.5625 0-1.082-0.16406-1.8633-0.48438-2.3438-0.3125-0.48828-0.82422-0.73438-1.5312-0.73438-0.92969 0-1.6484 0.38672-2.1562 1.1562-0.51172 0.76172-0.77344 1.8672-0.78125 3.3125v7.5156h-4.9219v-7.9844c0-1.6953-0.14844-2.7852-0.4375-3.2656-0.29297-0.48828-0.8125-0.73438-1.5625-0.73438-0.9375 0-1.6641 0.38672-2.1719 1.1562-0.51172 0.76172-0.76562 1.8594-0.76562 3.2969v7.5312h-4.9219v-15.312h4.9219v2.2344c0.60156-0.86328 1.2891-1.5156 2.0625-1.9531 0.78125-0.4375 1.6406-0.65625 2.5781-0.65625 1.0625 0 2 0.25781 2.8125 0.76562 0.8125 0.51172 1.4258 1.2305 1.8438 2.1562z"></path>
      </symbol>
      <symbol id="r" overflow="visible">
        <path d="m17.75-9.3281v9.3281h-4.9219v-7.1094c0-1.3438-0.03125-2.2656-0.09375-2.7656s-0.16797-0.86719-0.3125-1.1094c-0.1875-0.3125-0.44922-0.55469-0.78125-0.73438-0.32422-0.17578-0.69531-0.26562-1.1094-0.26562-1.0234 0-1.8242 0.39844-2.4062 1.1875-0.58594 0.78125-0.875 1.8711-0.875 3.2656v7.5312h-4.8906v-21.281h4.8906v8.2031c0.73828-0.88281 1.5195-1.5391 2.3438-1.9688 0.83203-0.42578 1.75-0.64062 2.75-0.64062 1.7695 0 3.1133 0.54688 4.0312 1.6406 0.91406 1.0859 1.375 2.6562 1.375 4.7188z"></path>
      </symbol>
      <symbol id="q" overflow="visible">
        <path d="m2.5781-20.406h5.875l7.4219 14v-14h4.9844v20.406h-5.875l-7.4219-14v14h-4.9844z"></path>
      </symbol>
      <symbol id="p" overflow="visible">
        <path d="m2.1875-5.9688v-9.3438h4.9219v1.5312c0 0.83594-0.007813 1.875-0.015625 3.125-0.011719 1.25-0.015625 2.0859-0.015625 2.5 0 1.2422 0.03125 2.1328 0.09375 2.6719 0.070313 0.54297 0.17969 0.93359 0.32812 1.1719 0.20703 0.32422 0.47266 0.57422 0.79688 0.75 0.32031 0.16797 0.69141 0.25 1.1094 0.25 1.0195 0 1.8203-0.39062 2.4062-1.1719 0.58203-0.78125 0.875-1.8672 0.875-3.2656v-7.5625h4.8906v15.312h-4.8906v-2.2188c-0.74219 0.89844-1.5234 1.5586-2.3438 1.9844-0.82422 0.41406-1.7344 0.625-2.7344 0.625-1.7617 0-3.1055-0.53906-4.0312-1.625-0.92969-1.082-1.3906-2.6602-1.3906-4.7344z"></path>
      </symbol>
      <symbol id="o" overflow="visible">
        <path d="m2.5781-20.406h8.7344c2.5938 0 4.582 0.57812 5.9688 1.7344 1.3945 1.1484 2.0938 2.7891 2.0938 4.9219 0 2.1367-0.69922 3.7812-2.0938 4.9375-1.3867 1.1562-3.375 1.7344-5.9688 1.7344h-3.4844v7.0781h-5.25zm5.25 3.8125v5.7031h2.9219c1.0195 0 1.8047-0.25 2.3594-0.75 0.5625-0.5 0.84375-1.2031 0.84375-2.1094 0-0.91406-0.28125-1.6172-0.84375-2.1094-0.55469-0.48828-1.3398-0.73438-2.3594-0.73438z"></path>
      </symbol>
      <symbol id="n" overflow="visible">
        <path d="m2.3594-15.312h4.8906v15.031c0 2.0508-0.49609 3.6172-1.4844 4.7031-0.98047 1.082-2.4062 1.625-4.2812 1.625h-2.4219v-3.2188h0.85938c0.92578 0 1.5625-0.21094 1.9062-0.625 0.35156-0.41797 0.53125-1.2461 0.53125-2.4844zm0-5.9688h4.8906v4h-4.8906z"></path>
      </symbol>
      <symbol id="m" overflow="visible">
        <path d="m14.719-14.828v3.9844c-0.65625-0.45703-1.3242-0.79688-2-1.0156-0.66797-0.21875-1.3594-0.32812-2.0781-0.32812-1.3672 0-2.4336 0.40234-3.2031 1.2031-0.76172 0.79297-1.1406 1.9062-1.1406 3.3438 0 1.4297 0.37891 2.543 1.1406 3.3438 0.76953 0.79297 1.8359 1.1875 3.2031 1.1875 0.75781 0 1.4844-0.10938 2.1719-0.32812 0.6875-0.22656 1.3203-0.56641 1.9062-1.0156v4c-0.76172 0.28125-1.5391 0.48828-2.3281 0.625-0.78125 0.14453-1.5742 0.21875-2.375 0.21875-2.7617 0-4.9219-0.70703-6.4844-2.125-1.5547-1.4141-2.3281-3.3828-2.3281-5.9062 0-2.5312 0.77344-4.5039 2.3281-5.9219 1.5625-1.4141 3.7227-2.125 6.4844-2.125 0.80078 0 1.5938 0.074219 2.375 0.21875 0.78125 0.13672 1.5547 0.35156 2.3281 0.64062z"></path>
      </symbol>
    </defs>
    <g>
      <path d="m332.08 166.32c-1.1211 85.121-1.6797 170.24-2.8008 255.36 0 12.879 20.16 15.68 20.16 2.8008 1.1211-85.121 1.6797-170.24 2.8008-255.36 0.5625-12.883-19.598-15.68-20.16-2.8008z"></path>
      <path d="m378 222.32c-7.8398-22.398-16.801-44.801-26.879-66.078-5.6016-11.762-24.641-3.9219-18.48 7.8398 10.641 21.281 19.602 43.68 26.879 66.078 3.9219 11.762 22.961 4.4805 18.48-7.8398z"></path>
      <path d="m329.28 157.36c-7.2812 21.84-14.559 43.121-21.84 64.961-3.9219 12.32 14.559 20.16 19.039 7.8398 7.2812-21.84 14.559-43.121 21.84-64.961 3.918-12.32-14.559-20.16-19.039-7.8398z"></path>
      <path d="m351.12 339.36c-26.32-45.359-71.121-73.922-123.76-76.719-12.879-0.55859-15.68 19.602-2.8008 20.16 44.801 2.2383 85.121 25.199 107.52 64.398 6.7227 11.199 25.203 3.3594 19.043-7.8398z"></path>
      <path d="m275.52 246.96c-20.16 5.6016-40.32 10.641-61.039 16.238-12.32 3.3594-10.078 23.52 2.8008 20.16 20.16-5.6016 40.32-10.641 61.039-16.238 12.32-3.3594 9.5195-23.52-2.8008-20.16z"></path>
      <path d="m265.44 299.6c-15.68-8.9609-30.238-19.602-43.68-32.48-9.5195-8.9609-21.84 7.2812-12.32 16.238 13.441 12.32 28 22.961 43.68 32.48 11.199 6.1602 23.52-9.5195 12.32-16.238z"></path>
      <path d="m458.08 274.4c-48.719 3.9219-105.28 14.559-123.76 67.199-4.4805 12.32 14.559 20.16 19.039 7.8398 15.68-45.359 66.078-50.961 107.52-54.32 12.887-1.6758 10.086-21.836-2.7969-20.719z"></path>
      <path d="m462.56 273.84c-18.48-5.0391-36.961-9.5195-55.441-14.559-12.32-3.3594-20.16 15.68-7.8398 19.039 18.48 5.0391 36.961 9.5195 55.441 14.559 12.883 2.8008 20.723-15.68 7.8398-19.039z"></path>
      <path d="m451.92 279.44c-16.801 9.5195-31.922 21.281-45.922 34.719-9.5195 8.9609 2.8008 25.199 12.32 16.238 14-13.441 29.68-24.641 45.922-34.719 11.199-7.2812-1.1211-22.961-12.32-16.238z"></path>
      <use x="70" y="644" xlink:href="#v"></use>
      <use x="90.550781" y="644" xlink:href="#d"></use>
      <use x="104.359375" y="644" xlink:href="#a"></use>
      <use x="123.347656" y="644" xlink:href="#c"></use>
      <use x="142.242188" y="644" xlink:href="#b"></use>
      <use x="155.628906" y="644" xlink:href="#a"></use>
      <use x="174.617188" y="644" xlink:href="#l"></use>
      <use x="204.410156" y="644" xlink:href="#k"></use>
      <use x="224.453125" y="644" xlink:href="#g"></use>
      <use x="252.453125" y="644" xlink:href="#j"></use>
      <use x="274.148438" y="644" xlink:href="#c"></use>
      <use x="293.042969" y="644" xlink:href="#i"></use>
      <use x="302.640625" y="644" xlink:href="#h"></use>
      <use x="312.238281" y="644" xlink:href="#f"></use>
      <use x="332.171875" y="644" xlink:href="#h"></use>
      <use x="341.769531" y="644" xlink:href="#f"></use>
      <use x="371.453125" y="644" xlink:href="#u"></use>
      <use x="381.867188" y="644" xlink:href="#i"></use>
      <use x="391.46875" y="644" xlink:href="#g"></use>
      <use x="409.71875" y="644" xlink:href="#c"></use>
      <use x="70" y="672" xlink:href="#t"></use>
      <use x="82.183594" y="672" xlink:href="#d"></use>
      <use x="95.992188" y="672" xlink:href="#e"></use>
      <use x="115.226562" y="672" xlink:href="#s"></use>
      <use x="154.152344" y="672" xlink:href="#b"></use>
      <use x="167.535156" y="672" xlink:href="#r"></use>
      <use x="187.46875" y="672" xlink:href="#a"></use>
      <use x="216.207031" y="672" xlink:href="#q"></use>
      <use x="239.640625" y="672" xlink:href="#e"></use>
      <use x="258.878906" y="672" xlink:href="#p"></use>
      <use x="278.8125" y="672" xlink:href="#f"></use>
      <use x="308.492188" y="672" xlink:href="#o"></use>
      <use x="329.015625" y="672" xlink:href="#d"></use>
      <use x="342.820312" y="672" xlink:href="#e"></use>
      <use x="362.058594" y="672" xlink:href="#n"></use>
      <use x="371.65625" y="672" xlink:href="#a"></use>
      <use x="390.648438" y="672" xlink:href="#m"></use>
      <use x="407.242188" y="672" xlink:href="#b"></use>
    </g>
  </symbol>
  <symbol version="1.1" xmlns="http://www.w3.org/2000/svg" xmlns:xlink="http://www.w3.org/1999/xlink" viewBox="0 0 700 700" id="savinghand">
    <defs>
      <symbol id="v" overflow="visible">
        <path d="m20.844-1.25c-1.0742 0.5625-2.1953 0.98438-3.3594 1.2656-1.168 0.28125-2.3828 0.42188-3.6406 0.42188-3.7812 0-6.7773-1.0508-8.9844-3.1562-2.2109-2.1133-3.3125-4.9766-3.3125-8.5938 0-3.625 1.1016-6.4922 3.3125-8.6094 2.207-2.1133 5.2031-3.1719 8.9844-3.1719 1.2578 0 2.4727 0.14844 3.6406 0.4375 1.1641 0.28125 2.2852 0.69922 3.3594 1.25v4.7031c-1.0859-0.73828-2.1523-1.2812-3.2031-1.625-1.0547-0.34375-2.1641-0.51562-3.3281-0.51562-2.0859 0-3.7266 0.66797-4.9219 2-1.1992 1.3359-1.7969 3.1797-1.7969 5.5312 0 2.3359 0.59766 4.1719 1.7969 5.5156 1.1953 1.3359 2.8359 2 4.9219 2 1.1641 0 2.2734-0.17188 3.3281-0.51562 1.0508-0.34375 2.1172-0.88281 3.2031-1.625z"></path>
      </symbol>
      <symbol id="d" overflow="visible">
        <path d="m15.25-12.375c-0.48047-0.22656-0.95312-0.39453-1.4219-0.5-0.46875-0.10156-0.94531-0.15625-1.4219-0.15625-1.3984 0-2.4766 0.44922-3.2344 1.3438-0.75 0.89844-1.125 2.1797-1.125 3.8438v7.8438h-5.4375v-17.016h5.4375v2.7969c0.69531-1.1133 1.5-1.9258 2.4062-2.4375 0.90625-0.50781 1.9922-0.76562 3.2656-0.76562 0.17578 0 0.36719 0.011719 0.57812 0.03125 0.21875 0.011719 0.53125 0.042969 0.9375 0.09375z"></path>
      </symbol>
      <symbol id="c" overflow="visible">
        <path d="m19.594-8.5469v1.5469h-12.719c0.13281 1.2734 0.59766 2.2305 1.3906 2.875 0.78906 0.63672 1.8945 0.95312 3.3125 0.95312 1.1445 0 2.3164-0.16406 3.5156-0.5 1.1953-0.34375 2.4297-0.85938 3.7031-1.5469v4.1875c-1.293 0.49219-2.5859 0.85547-3.875 1.0938-1.2812 0.25-2.5625 0.375-3.8438 0.375-3.0859 0-5.4805-0.78125-7.1875-2.3438-1.6992-1.5625-2.5469-3.7539-2.5469-6.5781 0-2.7812 0.83203-4.9609 2.5-6.5469 1.6758-1.5938 3.9844-2.3906 6.9219-2.3906 2.6758 0 4.8164 0.80859 6.4219 2.4219 1.6016 1.6055 2.4062 3.7578 2.4062 6.4531zm-5.5938-1.8125c0-1.0312-0.30469-1.8633-0.90625-2.5-0.59375-0.63281-1.3828-0.95312-2.3594-0.95312-1.0547 0-1.9062 0.29688-2.5625 0.89062s-1.0703 1.4492-1.2344 2.5625z"></path>
      </symbol>
      <symbol id="f" overflow="visible">
        <path d="m10.234-7.6562c-1.1367 0-1.9922 0.19531-2.5625 0.57812-0.5625 0.38672-0.84375 0.95312-0.84375 1.7031 0 0.6875 0.22656 1.2305 0.6875 1.625 0.45703 0.38672 1.0977 0.57812 1.9219 0.57812 1.0195 0 1.8789-0.36328 2.5781-1.0938 0.69531-0.73828 1.0469-1.6602 1.0469-2.7656v-0.625zm8.3125-2.0469v9.7031h-5.4844v-2.5156c-0.73047 1.0312-1.5547 1.7812-2.4688 2.25-0.90625 0.46875-2.0117 0.70312-3.3125 0.70312-1.7617 0-3.1953-0.50781-4.2969-1.5312-1.0938-1.0312-1.6406-2.3672-1.6406-4.0156 0-1.9883 0.67969-3.4453 2.0469-4.375 1.375-0.9375 3.5312-1.4062 6.4688-1.4062h3.2031v-0.42188c0-0.86328-0.33984-1.4922-1.0156-1.8906-0.67969-0.40625-1.7344-0.60938-3.1719-0.60938-1.168 0-2.2578 0.12109-3.2656 0.35938-1 0.23047-1.9297 0.57812-2.7812 1.0469v-4.1562c1.1641-0.28125 2.332-0.49219 3.5-0.64062 1.1758-0.14453 2.3516-0.21875 3.5312-0.21875 3.0703 0 5.2852 0.60547 6.6406 1.8125 1.3633 1.2109 2.0469 3.1797 2.0469 5.9062z"></path>
      </symbol>
      <symbol id="b" overflow="visible">
        <path d="m8.5469-21.844v4.8281h5.6094v3.8906h-5.6094v7.2188c0 0.79297 0.15625 1.3281 0.46875 1.6094 0.32031 0.27344 0.94531 0.40625 1.875 0.40625h2.7969v3.8906h-4.6719c-2.1484 0-3.668-0.44531-4.5625-1.3438-0.89844-0.89453-1.3438-2.4141-1.3438-4.5625v-7.2188h-2.7031v-3.8906h2.7031v-4.8281z"></path>
      </symbol>
      <symbol id="k" overflow="visible">
        <path d="m14.188-14.516v-9.125h5.4688v23.641h-5.4688v-2.4531c-0.75 1-1.5781 1.7344-2.4844 2.2031-0.89844 0.45703-1.9375 0.6875-3.125 0.6875-2.0938 0-3.8203-0.83203-5.1719-2.5-1.3438-1.6641-2.0156-3.8047-2.0156-6.4219 0-2.625 0.67188-4.7695 2.0156-6.4375 1.3516-1.6641 3.0781-2.5 5.1719-2.5 1.1758 0 2.2188 0.23438 3.125 0.70312s1.7344 1.2031 2.4844 2.2031zm-3.5781 11c1.1562 0 2.0391-0.42188 2.6562-1.2656 0.61328-0.85156 0.92188-2.0859 0.92188-3.7031 0-1.625-0.30859-2.8594-0.92188-3.7031-0.61719-0.85156-1.5-1.2812-2.6562-1.2812s-2.043 0.42969-2.6562 1.2812c-0.61719 0.84375-0.92188 2.0781-0.92188 3.7031 0 1.6172 0.30469 2.8516 0.92188 3.7031 0.61328 0.84375 1.5 1.2656 2.6562 1.2656z"></path>
      </symbol>
      <symbol id="e" overflow="visible">
        <path d="m11.672-3.5156c1.1562 0 2.0391-0.42188 2.6562-1.2656 0.61328-0.85156 0.92188-2.0859 0.92188-3.7031 0-1.625-0.30859-2.8594-0.92188-3.7031-0.61719-0.85156-1.5-1.2812-2.6562-1.2812-1.168 0-2.0625 0.42969-2.6875 1.2812-0.625 0.85547-0.9375 2.0898-0.9375 3.7031 0 1.6055 0.3125 2.8359 0.9375 3.6875 0.625 0.85547 1.5195 1.2812 2.6875 1.2812zm-3.625-11c0.75-1 1.5781-1.7344 2.4844-2.2031 0.91406-0.46875 1.9688-0.70312 3.1562-0.70312 2.0938 0 3.8125 0.83594 5.1562 2.5 1.3516 1.668 2.0312 3.8125 2.0312 6.4375 0 2.6172-0.67969 4.7578-2.0312 6.4219-1.3438 1.668-3.0625 2.5-5.1562 2.5-1.1875 0-2.2422-0.23438-3.1562-0.70312-0.90625-0.46875-1.7344-1.1953-2.4844-2.1875v2.4531h-5.4375v-23.641h5.4375z"></path>
      </symbol>
      <symbol id="j" overflow="visible">
        <path d="m0.375-17.016h5.4375l4.5781 11.547 3.8906-11.547h5.4375l-7.1562 18.625c-0.71875 1.8945-1.5586 3.2188-2.5156 3.9688-0.96094 0.75781-2.2188 1.1406-3.7812 1.1406h-3.1562v-3.5781h1.7031c0.92578 0 1.5977-0.14844 2.0156-0.4375 0.41406-0.29297 0.74219-0.82031 0.98438-1.5781l0.14062-0.46875z"></path>
      </symbol>
      <symbol id="i" overflow="visible">
        <path d="m8.7031-18.266v13.844h2.0938c2.3945 0 4.2227-0.58594 5.4844-1.7656 1.2578-1.1875 1.8906-2.9102 1.8906-5.1719 0-2.25-0.63281-3.9609-1.8906-5.1406-1.25-1.1758-3.0781-1.7656-5.4844-1.7656zm-5.8438-4.4062h6.1562c3.4453 0 6.0156 0.24609 7.7031 0.73438 1.6875 0.49219 3.1289 1.3242 4.3281 2.5 1.0703 1.0234 1.8633 2.1992 2.375 3.5312 0.51953 1.3359 0.78125 2.8516 0.78125 4.5469 0 1.7109-0.26172 3.2344-0.78125 4.5781-0.51172 1.3438-1.3047 2.5273-2.375 3.5469-1.2109 1.1797-2.668 2.0117-4.375 2.5-1.6992 0.49219-4.25 0.73438-7.6562 0.73438h-6.1562z"></path>
      </symbol>
      <symbol id="u" overflow="visible">
        <path d="m2.6094-17.016h5.4375v17.016h-5.4375zm0-6.625h5.4375v4.4375h-5.4375z"></path>
      </symbol>
      <symbol id="h" overflow="visible">
        <path d="m19.719-10.359v10.359h-5.4688v-7.9219c0-1.4688-0.039062-2.4766-0.10938-3.0312-0.0625-0.5625-0.17188-0.97656-0.32812-1.25-0.21875-0.35156-0.51172-0.62891-0.875-0.82812-0.36719-0.19531-0.77734-0.29688-1.2344-0.29688-1.1367 0-2.0312 0.44531-2.6875 1.3281-0.64844 0.875-0.96875 2.0859-0.96875 3.625v8.375h-5.4375v-17.016h5.4375v2.5c0.82031-1 1.6914-1.7344 2.6094-2.2031 0.92578-0.46875 1.9453-0.70312 3.0625-0.70312 1.957 0 3.4453 0.60547 4.4688 1.8125 1.0195 1.1992 1.5312 2.9492 1.5312 5.25z"></path>
      </symbol>
      <symbol id="a" overflow="visible">
        <path d="m10.703-13.531c-1.1992 0-2.1172 0.43359-2.75 1.2969-0.63672 0.86719-0.95312 2.1172-0.95312 3.75 0 1.625 0.31641 2.8711 0.95312 3.7344 0.63281 0.86719 1.5508 1.2969 2.75 1.2969 1.1875 0 2.0938-0.42969 2.7188-1.2969 0.63281-0.86328 0.95312-2.1094 0.95312-3.7344 0-1.6328-0.32031-2.8828-0.95312-3.75-0.625-0.86328-1.5312-1.2969-2.7188-1.2969zm0-3.8906c2.9258 0 5.2109 0.79297 6.8594 2.375 1.6445 1.5742 2.4688 3.7617 2.4688 6.5625 0 2.793-0.82422 4.9805-2.4688 6.5625-1.6484 1.5742-3.9336 2.3594-6.8594 2.3594-2.9375 0-5.2344-0.78516-6.8906-2.3594-1.6484-1.582-2.4688-3.7695-2.4688-6.5625 0-2.8008 0.82031-4.9883 2.4688-6.5625 1.6562-1.582 3.9531-2.375 6.8906-2.375z"></path>
      </symbol>
      <symbol id="t" overflow="visible">
        <path d="m15.906-16.484v4.1406c-1.168-0.48828-2.293-0.85156-3.375-1.0938-1.0859-0.25-2.1055-0.375-3.0625-0.375-1.043 0-1.8125 0.13281-2.3125 0.39062-0.5 0.26172-0.75 0.65625-0.75 1.1875 0 0.4375 0.1875 0.77734 0.5625 1.0156 0.38281 0.23047 1.0664 0.40234 2.0469 0.51562l0.96875 0.125c2.7812 0.35547 4.6484 0.9375 5.6094 1.75 0.96875 0.8125 1.4531 2.0859 1.4531 3.8125 0 1.8125-0.67188 3.1797-2.0156 4.0938-1.3359 0.90625-3.3281 1.3594-5.9844 1.3594-1.1172 0-2.2773-0.089844-3.4844-0.26562-1.1992-0.17578-2.4297-0.44141-3.6875-0.79688v-4.125c1.082 0.52344 2.1914 0.91797 3.3281 1.1875 1.1328 0.26172 2.2891 0.39062 3.4688 0.39062 1.0625 0 1.8594-0.14453 2.3906-0.4375 0.53906-0.30078 0.8125-0.73828 0.8125-1.3125 0-0.48828-0.1875-0.84766-0.5625-1.0781-0.36719-0.23828-1.1016-0.42578-2.2031-0.5625l-0.95312-0.125c-2.418-0.30078-4.1172-0.85938-5.0938-1.6719-0.96875-0.82031-1.4531-2.0703-1.4531-3.75 0-1.8008 0.61328-3.1328 1.8438-4 1.2383-0.875 3.1328-1.3125 5.6875-1.3125 1 0 2.0508 0.078125 3.1562 0.23438 1.1016 0.14844 2.3047 0.38281 3.6094 0.70312z"></path>
      </symbol>
      <symbol id="g" overflow="visible">
        <path d="m13.812-23.641v3.5781h-3.0156c-0.77344 0-1.3086 0.14062-1.6094 0.42188-0.30469 0.27344-0.45312 0.75-0.45312 1.4375v1.1875h4.6406v3.8906h-4.6406v13.125h-5.4375v-13.125h-2.7031v-3.8906h2.7031v-1.1875c0-1.8516 0.51562-3.2227 1.5469-4.1094 1.0312-0.88281 2.6289-1.3281 4.7969-1.3281z"></path>
      </symbol>
      <symbol id="s" overflow="visible">
        <path d="m2.8594-22.672h5.8438v18.25h10.266v4.4219h-16.109z"></path>
      </symbol>
      <symbol id="r" overflow="visible">
        <path d="m18.375-14.188c0.6875-1.0508 1.5039-1.8516 2.4531-2.4062 0.94531-0.55078 1.9883-0.82812 3.125-0.82812 1.957 0 3.4453 0.60547 4.4688 1.8125 1.0195 1.1992 1.5312 2.9492 1.5312 5.25v10.359h-5.4688v-8.875c0.007813-0.125 0.015625-0.25781 0.015625-0.40625 0.007812-0.14453 0.015625-0.34766 0.015625-0.60938 0-1.207-0.17969-2.082-0.53125-2.625-0.35547-0.53906-0.92969-0.8125-1.7188-0.8125-1.0312 0-1.8281 0.42969-2.3906 1.2812-0.5625 0.85547-0.85547 2.0859-0.875 3.6875v8.3594h-5.4688v-8.875c0-1.8828-0.16406-3.0977-0.48438-3.6406-0.32422-0.53906-0.90234-0.8125-1.7344-0.8125-1.043 0-1.8516 0.43359-2.4219 1.2969-0.5625 0.85547-0.84375 2.0742-0.84375 3.6562v8.375h-5.4688v-17.016h5.4688v2.5c0.66406-0.96875 1.4297-1.6914 2.2969-2.1719 0.875-0.48828 1.832-0.73438 2.875-0.73438 1.1758 0 2.2109 0.28906 3.1094 0.85938 0.90625 0.5625 1.5859 1.3555 2.0469 2.375z"></path>
      </symbol>
      <symbol id="q" overflow="visible">
        <path d="m19.719-10.359v10.359h-5.4688v-7.9062c0-1.4766-0.039062-2.4922-0.10938-3.0469-0.0625-0.5625-0.17188-0.97656-0.32812-1.25-0.21875-0.35156-0.51172-0.62891-0.875-0.82812-0.36719-0.19531-0.77734-0.29688-1.2344-0.29688-1.1367 0-2.0312 0.44531-2.6875 1.3281-0.64844 0.875-0.96875 2.0859-0.96875 3.625v8.375h-5.4375v-23.641h5.4375v9.125c0.82031-1 1.6914-1.7344 2.6094-2.2031 0.92578-0.46875 1.9453-0.70312 3.0625-0.70312 1.957 0 3.4453 0.60547 4.4688 1.8125 1.0195 1.1992 1.5312 2.9492 1.5312 5.25z"></path>
      </symbol>
      <symbol id="p" overflow="visible">
        <path d="m2.8594-22.672h6.5312l8.25 15.547v-15.547h5.5469v22.672h-6.5469l-8.2344-15.562v15.562h-5.5469z"></path>
      </symbol>
      <symbol id="o" overflow="visible">
        <path d="m2.4375-6.625v-10.391h5.4688v1.7031c0 0.92969-0.007812 2.0898-0.015625 3.4844-0.011719 1.3867-0.015625 2.3125-0.015625 2.7812 0 1.3672 0.03125 2.3516 0.09375 2.9531 0.070312 0.60547 0.19531 1.043 0.375 1.3125 0.21875 0.35547 0.50391 0.63281 0.85938 0.82812 0.36328 0.1875 0.78125 0.28125 1.25 0.28125 1.1328 0 2.0234-0.42969 2.6719-1.2969 0.64453-0.875 0.96875-2.0859 0.96875-3.6406v-8.4062h5.4375v17.016h-5.4375v-2.4531c-0.82422 0.99219-1.6953 1.7188-2.6094 2.1875-0.91797 0.46875-1.9297 0.70312-3.0312 0.70312-1.9609 0-3.4531-0.59766-4.4844-1.7969-1.0234-1.207-1.5312-2.9609-1.5312-5.2656z"></path>
      </symbol>
      <symbol id="n" overflow="visible">
        <path d="m2.8594-22.672h9.7031c2.8828 0 5.0977 0.64062 6.6406 1.9219 1.5508 1.2812 2.3281 3.1055 2.3281 5.4688 0 2.375-0.77734 4.2031-2.3281 5.4844-1.543 1.2812-3.7578 1.9219-6.6406 1.9219h-3.8594v7.875h-5.8438zm5.8438 4.2344v6.3281h3.2344c1.1328 0 2.0078-0.27344 2.625-0.82812 0.625-0.55078 0.9375-1.332 0.9375-2.3438 0-1.0078-0.3125-1.7852-0.9375-2.3281-0.61719-0.55078-1.4922-0.82812-2.625-0.82812z"></path>
      </symbol>
      <symbol id="m" overflow="visible">
        <path d="m2.6094-17.016h5.4375v16.719c0 2.2695-0.54688 4.0039-1.6406 5.2031-1.0938 1.207-2.6797 1.8125-4.75 1.8125h-2.6875v-3.5781h0.9375c1.0312 0 1.7383-0.23438 2.125-0.70312 0.38281-0.46094 0.57812-1.3711 0.57812-2.7344zm0-6.625h5.4375v4.4375h-5.4375z"></path>
      </symbol>
      <symbol id="l" overflow="visible">
        <path d="m16.359-16.484v4.4375c-0.74219-0.50781-1.4844-0.88281-2.2344-1.125-0.74219-0.23828-1.5117-0.35938-2.3125-0.35938-1.5117 0-2.6953 0.44531-3.5469 1.3281-0.84375 0.88672-1.2656 2.125-1.2656 3.7188 0 1.5859 0.42188 2.8203 1.2656 3.7031 0.85156 0.88672 2.0352 1.3281 3.5469 1.3281 0.85156 0 1.6602-0.125 2.4219-0.375 0.76953-0.25 1.4766-0.625 2.125-1.125v4.4531c-0.85547 0.3125-1.7188 0.54688-2.5938 0.70312s-1.75 0.23438-2.625 0.23438c-3.0742 0-5.4766-0.78516-7.2031-2.3594-1.7305-1.5703-2.5938-3.7578-2.5938-6.5625 0-2.8125 0.86328-5.0039 2.5938-6.5781 1.7266-1.5703 4.1289-2.3594 7.2031-2.3594 0.88281 0 1.7578 0.078125 2.625 0.23438 0.86328 0.15625 1.7266 0.39062 2.5938 0.70312z"></path>
      </symbol>
    </defs>
    <g>
      <path d="m212.04 468.56h-73.594c-3.4375 0-6.2227-2.7852-6.2227-6.2188v-142.34c0-3.4375 2.7852-6.2227 6.2227-6.2227h73.594c1.6523 0 3.2344 0.65625 4.4023 1.8203 1.168 1.168 1.8203 2.75 1.8203 4.4023v142.34c0 1.6484-0.65234 3.2305-1.8203 4.3984-1.168 1.168-2.75 1.8203-4.4023 1.8203zm-67.371-12.441h61.152v-129.89h-61.152z"></path>
      <path d="m404.05 419.78h-80.891 0.003906c-3.4375 0-6.2227-2.7891-6.2227-6.2227 0-3.4375 2.7852-6.2227 6.2227-6.2227h80.891-0.003907c5.4141 0 10.414-2.8867 13.117-7.5742 2.707-4.6836 2.707-10.457 0-15.145-2.7031-4.6836-7.7031-7.5703-13.117-7.5703h-55.695c-2.0469-0.003907-3.9648-1.0117-5.125-2.7031-26.32-38.297-129.71-31.562-130.74-31.496-3.418 0.19922-6.3672-2.3672-6.6367-5.7812-0.23828-3.4258 2.3477-6.3906 5.7734-6.6328 4.4492-0.31641 107.15-6.9453 139.88 34.172h52.566l-0.003907 0.003907c9.8594 0 18.965 5.2578 23.895 13.793 4.9258 8.5352 4.9258 19.055 0 27.59-4.9297 8.5352-14.035 13.793-23.895 13.793z"></path>
      <path d="m352.44 495.91c-15.668 0-31.191-3-45.73-8.8398l-96.988-38.953c-1.543-0.60547-2.7812-1.8008-3.4375-3.3242-0.65625-1.5234-0.67969-3.2461-0.0625-4.7852 0.61719-1.5391 1.8242-2.7695 3.3516-3.4141 1.5273-0.64453 3.25-0.65234 4.7852-0.023438l96.984 38.926c29.715 11.934 63.152 10.344 91.598-4.3555l151.02-72.918c-27.461-11.348-58.219-11.777-85.984-1.1953l-46.668 15.898h0.003906c-1.5703 0.55469-3.293 0.45703-4.7891-0.26562-1.4961-0.72656-2.6406-2.0195-3.1758-3.5938-0.53906-1.5742-0.42188-3.2969 0.32031-4.7852 0.74219-1.4883 2.0508-2.6172 3.6289-3.1328l46.473-15.828v-0.003906c31.434-11.926 66.281-11.09 97.105 2.3281 4.0859 1.7773 6.7734 5.7539 6.8984 10.207 0.12891 4.4531-2.332 8.5742-6.3086 10.582l-152.97 73.863c-17.332 8.9414-36.547 13.609-56.051 13.613z"></path>
      <path d="m384.22 306.79c-32.18 0-63.043-12.781-85.797-35.535-22.754-22.754-35.535-53.617-35.535-85.797s12.781-63.039 35.535-85.797c22.754-22.754 53.617-35.535 85.797-35.535 32.18 0 63.039 12.781 85.797 35.535 22.754 22.758 35.535 53.617 35.535 85.797-0.035157 32.168-12.832 63.008-35.578 85.754-22.746 22.75-53.586 35.543-85.754 35.578zm0-230.22c-28.879 0-56.574 11.473-76.996 31.895-20.422 20.422-31.895 48.117-31.895 76.996s11.473 56.574 31.895 76.996c20.422 20.422 48.117 31.895 76.996 31.895s56.574-11.473 76.996-31.895 31.891-48.117 31.891-76.996c-0.03125-28.867-11.516-56.543-31.93-76.957-20.414-20.414-48.09-31.898-76.957-31.934z"></path>
      <path d="m384.22 275.68c-23.93 0-46.879-9.5039-63.797-26.426-16.922-16.918-26.426-39.867-26.426-63.797s9.5039-46.875 26.426-63.797c16.918-16.918 39.867-26.426 63.797-26.426 23.93 0 46.875 9.5078 63.797 26.426 16.918 16.922 26.426 39.867 26.426 63.797-0.027343 23.922-9.543 46.852-26.457 63.766-16.914 16.914-39.848 26.43-63.766 26.457zm0-168c-20.629 0-40.41 8.1953-54.996 22.781-14.586 14.586-22.781 34.367-22.781 54.996s8.1953 40.41 22.781 54.996c14.586 14.586 34.367 22.781 54.996 22.781s40.41-8.1953 54.996-22.781c14.586-14.586 22.781-34.367 22.781-54.996-0.023438-20.621-8.2266-40.391-22.805-54.973-14.582-14.578-34.352-22.781-54.973-22.805z"></path>
      <path d="m384.22 191.68c-7.9844 0.24219-15.742-2.6875-21.574-8.1484-5.832-5.4609-9.2578-13.012-9.5391-20.996 0.70703-10.625 6.7852-20.156 16.125-25.277 9.3359-5.1172 20.641-5.1172 29.977 0 9.3398 5.1211 15.418 14.652 16.121 25.277 0 3.4375-2.7852 6.2227-6.2227 6.2227-3.4336 0-6.2188-2.7852-6.2188-6.2227-0.69922-6.1719-4.3984-11.602-9.8906-14.504s-12.062-2.9023-17.555 0c-5.4922 2.9023-9.1953 8.332-9.8906 14.504 0.28125 4.6836 2.4023 9.0625 5.8984 12.191s8.0859 4.75 12.77 4.5078c3.4375 0 6.2227 2.7852 6.2227 6.2227s-2.7852 6.2227-6.2227 6.2227z"></path>
      <path d="m384.22 237.52c-7.9844 0.24609-15.742-2.6836-21.574-8.1484-5.832-5.4609-9.2578-13.012-9.5391-20.996 0-3.4336 2.7891-6.2227 6.2227-6.2227 3.4375 0 6.2227 2.7891 6.2227 6.2227 0.69531 6.1719 4.3984 11.602 9.8906 14.504 5.4922 2.9023 12.062 2.9023 17.555 0s9.1914-8.332 9.8906-14.504c-0.28125-4.6797-2.4023-9.0625-5.8984-12.191-3.4961-3.1289-8.0859-4.7461-12.77-4.5078-3.4375 0-6.2227-2.7852-6.2227-6.2227s2.7852-6.2227 6.2227-6.2227c7.9844-0.24219 15.742 2.6875 21.574 8.1484 5.8281 5.4648 9.2578 13.012 9.5352 20.996-0.27734 7.9844-3.707 15.535-9.5352 20.996-5.832 5.4648-13.59 8.3945-21.574 8.1484z"></path>
      <path d="m384.22 244.22c-3.4375 0-6.2227-2.7852-6.2227-6.2227v-6.7031c0-3.4336 2.7852-6.2188 6.2227-6.2188s6.2227 2.7852 6.2227 6.2188v6.7031c0 1.6484-0.65625 3.2344-1.8242 4.3984-1.1641 1.168-2.75 1.8242-4.3984 1.8242z"></path>
      <path d="m384.22 145.83c-3.4375 0-6.2227-2.7891-6.2227-6.2227v-6.6953c0-3.4375 2.7852-6.2227 6.2227-6.2227s6.2227 2.7852 6.2227 6.2227v6.6953c0 1.6484-0.65625 3.2305-1.8242 4.3984-1.1641 1.168-2.75 1.8242-4.3984 1.8242z"></path>
      <use x="70" y="653.332031" xlink:href="#v"></use>
      <use x="92.832031" y="653.332031" xlink:href="#d"></use>
      <use x="108.175781" y="653.332031" xlink:href="#c"></use>
      <use x="129.273437" y="653.332031" xlink:href="#f"></use>
      <use x="150.269531" y="653.332031" xlink:href="#b"></use>
      <use x="165.140625" y="653.332031" xlink:href="#c"></use>
      <use x="186.242188" y="653.332031" xlink:href="#k"></use>
      <use x="219.34375" y="653.332031" xlink:href="#e"></use>
      <use x="241.613281" y="653.332031" xlink:href="#j"></use>
      <use x="272.722656" y="653.332031" xlink:href="#i"></use>
      <use x="298.546875" y="653.332031" xlink:href="#u"></use>
      <use x="309.210938" y="653.332031" xlink:href="#h"></use>
      <use x="331.359375" y="653.332031" xlink:href="#a"></use>
      <use x="352.734375" y="653.332031" xlink:href="#t"></use>
      <use x="371.253906" y="653.332031" xlink:href="#a"></use>
      <use x="392.625" y="653.332031" xlink:href="#g"></use>
      <use x="406.160156" y="653.332031" xlink:href="#b"></use>
      <use x="421.03125" y="653.332031" xlink:href="#s"></use>
      <use x="440.855469" y="653.332031" xlink:href="#f"></use>
      <use x="461.851562" y="653.332031" xlink:href="#e"></use>
      <use x="70" y="684.445312" xlink:href="#g"></use>
      <use x="83.535156" y="684.445312" xlink:href="#d"></use>
      <use x="98.878906" y="684.445312" xlink:href="#a"></use>
      <use x="120.25" y="684.445312" xlink:href="#r"></use>
      <use x="163.5" y="684.445312" xlink:href="#b"></use>
      <use x="178.371094" y="684.445312" xlink:href="#q"></use>
      <use x="200.519531" y="684.445312" xlink:href="#c"></use>
      <use x="232.453125" y="684.445312" xlink:href="#p"></use>
      <use x="258.488281" y="684.445312" xlink:href="#a"></use>
      <use x="279.863281" y="684.445312" xlink:href="#o"></use>
      <use x="302.011719" y="684.445312" xlink:href="#h"></use>
      <use x="334.992188" y="684.445312" xlink:href="#n"></use>
      <use x="357.792969" y="684.445312" xlink:href="#d"></use>
      <use x="373.136719" y="684.445312" xlink:href="#a"></use>
      <use x="394.507812" y="684.445312" xlink:href="#m"></use>
      <use x="405.171875" y="684.445312" xlink:href="#c"></use>
      <use x="426.273437" y="684.445312" xlink:href="#l"></use>
      <use x="444.714844" y="684.445312" xlink:href="#b"></use>
    </g>
  </symbol>
  <symbol version="1.1" xmlns="http://www.w3.org/2000/svg" viewBox="0 0 700 700" id="user">
    <path d="m350 547.57c-70.965 0-139.02-28.191-189.2-78.371s-78.371-118.24-78.371-189.2 28.191-139.02 78.371-189.2 118.24-78.371 189.2-78.371c228-1.6055 352.75 275 200.61 444.59l-0.007813 0.007813c-25.102 28.461-55.969 51.254-90.555 66.867s-72.102 23.688-110.05 23.684zm-6.2812-26.336c34.434 0.85938 68.652-5.6445 100.37-19.082 31.715-13.438 60.195-33.492 83.527-58.828-0.41016-35.16-11.223-69.41-31.07-98.434-19.848-29.027-47.84-51.523-80.457-64.664-19.156 14.078-42.309 21.672-66.082 21.672-23.773 0-46.926-7.5938-66.082-21.672-32.617 13.137-60.617 35.633-80.465 64.66-19.852 29.023-30.66 63.277-31.07 98.438 21.871 23.812 48.312 42.984 77.746 56.367 29.438 13.387 61.262 20.715 93.586 21.547zm6.2812-482.56c-189.52-2.457-307.82 218.05-201.32 374.36 5.2852-32.801 18.48-63.82 38.441-90.379 19.961-26.559 46.094-47.852 76.133-62.047-17.785-21.957-26.578-49.84-24.609-78.023 1.9688-28.188 14.555-54.578 35.219-73.848 20.664-19.27 47.863-29.988 76.121-29.988 28.254 0 55.457 10.711 76.121 29.98 20.664 19.27 33.254 45.656 35.223 73.844 1.9727 28.184-6.8164 56.07-24.598 78.027 30.043 14.191 56.176 35.488 76.145 62.047 19.965 26.559 33.16 57.582 38.445 90.387 106.52-156.34-11.848-376.83-201.32-374.36zm-0.71875 237.12c113.32-3.1602 114.08-166.94 0.71484-170.8-112.59 3.6523-112.88 166.25-0.71484 170.8z"></path>
  </symbol>
</svg>