<?xml version="1.0" standalone="no"?>
<!DOCTYPE svg PUBLIC "-//W3C//DTD SVG 20010904//EN"
 "http://www.w3.org/TR/2001/REC-SVG-20010904/DTD/svg10.dtd">
<svg version="1.0" xmlns="http://www.w3.org/2000/svg"
 width="256.000000pt" height="256.000000pt" viewBox="0 0 256.000000 256.000000"
 preserveAspectRatio="xMidYMid meet">

<g transform="translate(0.000000,256.000000) scale(0.100000,-0.100000)"
fill="#000000" stroke="none">
<path d="M1063 2217 c-163 -162 -183 -186 -183 -215 0 -44 38 -82 81 -82 27 0
48 16 135 102 l104 102 0 -473 0 -473 -69 65 c-81 76 -172 130 -279 165 -66
21 -102 25 -245 30 l-168 5 100 102 c85 86 101 107 101 134 0 43 -38 81 -82
81 -29 0 -53 -20 -215 -183 -166 -166 -183 -186 -183 -217 0 -31 17 -51 183
-217 162 -163 186 -183 215 -183 44 0 82 38 82 81 0 27 -16 48 -102 135 l-102
104 130 0 c73 0 158 -7 197 -15 149 -31 297 -144 370 -282 60 -116 67 -161 67
-486 l0 -288 25 -24 c32 -33 78 -33 110 0 l25 24 0 283 c0 323 8 378 66 490
74 139 221 251 371 283 39 8 124 15 197 15 l130 0 -102 -104 c-86 -87 -102
-108 -102 -135 0 -43 38 -81 82 -81 29 0 53 20 215 183 166 166 183 186 183
217 0 31 -17 51 -183 217 -162 163 -186 183 -215 183 -44 0 -82 -38 -82 -81 0
-27 16 -48 101 -134 l100 -102 -168 -5 c-143 -5 -179 -9 -245 -30 -107 -35
-198 -89 -279 -165 l-69 -65 0 473 0 473 104 -102 c87 -86 108 -102 135 -102
43 0 81 38 81 82 0 29 -20 53 -183 215 -166 166 -186 183 -217 183 -31 0 -51
-17 -217 -183z"/>
</g>
</svg>
