<?xml version="1.0" encoding="UTF-8"?>
<svg width="700pt" height="700pt" version="1.1" viewBox="0 0 700 700" fill="white" xmlns="http://www.w3.org/2000/svg">
 <path d="m350 547.57c-70.965 0-139.02-28.191-189.2-78.371s-78.371-118.24-78.371-189.2 28.191-139.02 78.371-189.2 118.24-78.371 189.2-78.371c228-1.6055 352.75 275 200.61 444.59l-0.007813 0.007813c-25.102 28.461-55.969 51.254-90.555 66.867s-72.102 23.688-110.05 23.684zm-6.2812-26.336c34.434 0.85938 68.652-5.6445 100.37-19.082 31.715-13.438 60.195-33.492 83.527-58.828-0.41016-35.16-11.223-69.41-31.07-98.434-19.848-29.027-47.84-51.523-80.457-64.664-19.156 14.078-42.309 21.672-66.082 21.672-23.773 0-46.926-7.5938-66.082-21.672-32.617 13.137-60.617 35.633-80.465 64.66-19.852 29.023-30.66 63.277-31.07 98.438 21.871 23.812 48.312 42.984 77.746 56.367 29.438 13.387 61.262 20.715 93.586 21.547zm6.2812-482.56c-189.52-2.457-307.82 218.05-201.32 374.36 5.2852-32.801 18.48-63.82 38.441-90.379 19.961-26.559 46.094-47.852 76.133-62.047-17.785-21.957-26.578-49.84-24.609-78.023 1.9688-28.188 14.555-54.578 35.219-73.848 20.664-19.27 47.863-29.988 76.121-29.988 28.254 0 55.457 10.711 76.121 29.98 20.664 19.27 33.254 45.656 35.223 73.844 1.9727 28.184-6.8164 56.07-24.598 78.027 30.043 14.191 56.176 35.488 76.145 62.047 19.965 26.559 33.16 57.582 38.445 90.387 106.52-156.34-11.848-376.83-201.32-374.36zm-0.71875 237.12c113.32-3.1602 114.08-166.94 0.71484-170.8-112.59 3.6523-112.88 166.25-0.71484 170.8z"/>
</svg>
